<?xml version="1.0" encoding="UTF-8"?>
<svg id="Capa_2" data-name="Capa 2" xmlns="http://www.w3.org/2000/svg" viewBox="0 0 438.8 698">
  <defs>
    <style>
      .cls-1 {
        fill: #fff;
      }

      .cls-2 {
        fill: #1d1d1b;
      }

      .cls-3 {
        fill: #ccd379;
      }

      .cls-4 {
        fill: #a6b727;
      }
    </style>
  </defs>
  <g id="Isotipo">
    <g>
      <g>
        <path class="cls-4" d="M195.75,594.63c3.93,1.46,6.48,5.32,6.17,9.5-.66,8.98-8.17,18.69-8.04,20.33.19,2.38,6.04,9.14,7.69,10.27,4.89,3.33,9.66,7.07,13.1,11.96,5.43,7.71,5.7,18.53,1.78,26.95-3.66,7.87-10.92,12.21-18.89,14.8-16.79,5.48-36.41,5.51-53.6,1.98-6.06-1.24-12.79-2.98-17.7-6.96-32.22-26.14,25.45-70.48,19.03-104.02-.32-1.65,1.34-2.99,2.92-2.41l47.53,17.6Z"/>
        <path class="cls-2" d="M167.69,698c-8.19,0-16.57-.83-24.76-2.52-6.98-1.43-14.22-3.39-19.92-8.01-21.98-17.83-8.58-42.64,3.24-64.53,8.02-14.86,16.32-30.22,13.96-42.54-.49-2.58.45-5.24,2.46-6.94,2.03-1.72,4.84-2.22,7.34-1.29l47.54,17.6c6.09,2.26,10.01,8.31,9.53,14.73-.53,7.16-4.48,14.28-6.84,18.53-.25.45-.53.95-.77,1.4,1.26,1.97,4.05,5.25,5.1,6.07,4.76,3.25,10.26,7.4,14.34,13.2,6.28,8.93,7.16,21.54,2.24,32.11-3.83,8.23-11.02,13.96-21.98,17.54-9.45,3.08-20.28,4.64-31.48,4.64ZM150.95,583.56c.54,14.44-7.65,29.59-15.59,44.3-13.16,24.36-20.12,39.99-5.83,51.57,3.97,3.22,9.79,4.75,15.48,5.91,17.69,3.63,36.26,2.97,50.95-1.83,8.08-2.64,13.25-6.59,15.8-12.07,3.34-7.17,2.8-15.92-1.33-21.79-3.12-4.44-7.71-7.88-11.78-10.66-1.51-1.03-9.52-9.06-9.93-14.13-.17-2.1.71-3.69,2.47-6.86,2.07-3.74,5.21-9.38,5.57-14.27.14-1.85-1.02-3.6-2.81-4.26l-43-15.92Z"/>
      </g>
      <g>
        <path class="cls-4" d="M293.05,553.6h0c-6.44,4.75-8.11,13.62-3.93,20.44,9.57,15.57,16.65,42.22,18.4,43.77,2.94,2.6,11.51.95,15.03.97,7.76.04,16.08.36,23.23,3.71,5.32,2.49,9.26,6.77,10.77,12.51,1.78,6.77,1.25,14.98-1.72,21.35-2.23,4.78-6.52,8.07-10.83,10.92-9.74,6.45-20.98,10.91-32.21,13.97-16.61,4.53-45.85,8.94-54.45-11.19-13.1-30.67,11.45-41.14-27.39-74.14-26.02-22.11-54.97-26.41-81.47-38.88-5.31-2.5-11.14-3.7-17.01-3.7h-55.7c-41.28,0-73.74-35.24-70.38-76.38L26.89,213.65c3.54-43.42,10.25-86.55,20.05-129.01l14.85-64.42c2.05-8.81,9.88-15.05,18.93-15.05h62.1c8.72,0,15.39,7.77,14.07,16.41l-13.58,88.2c-3.13,20.32,12.59,38.65,33.15,38.65h76.06c20.84,0,37.01-18.16,34.59-38.86l-10.07-86.77c-1.08-9.39,6.26-17.63,15.7-17.63h61.1c8.95,0,16.68,6.2,18.67,14.91l12.81,56.72c10.76,47.69,18.53,96.02,23.28,144.69,0,0,24.68,253.84,24.69,253.95,2.03,20.91-5.46,41.95-20.25,56.88-29.54,29.81-80.97,21-119.17,21-.3,0-.59.1-.83.27Z"/>
        <path class="cls-2" d="M286.21,690.31c-16.84,0-28.46-6.18-33.62-18.24-5.37-12.57-4.96-22.07-4.6-30.46.55-12.72.98-22.77-21.38-41.77-16.87-14.33-35.5-21.04-53.51-27.52-8.85-3.18-18-6.48-26.81-10.62-4.46-2.1-9.58-3.21-14.81-3.21h-55.7c-21.11,0-41.43-8.9-55.73-24.43-14.31-15.52-21.52-36.5-19.8-57.55L21.73,213.23c3.55-43.49,10.33-87.14,20.17-129.75l14.85-64.42C59.36,7.84,69.21,0,80.72,0h62.1c5.66,0,11.02,2.46,14.72,6.76,3.7,4.3,5.32,9.99,4.47,15.6l-13.58,88.21c-1.26,8.19,1.11,16.5,6.51,22.79,5.4,6.29,13.24,9.9,21.53,9.9h76.06c8.46,0,16.54-3.62,22.15-9.94,5.62-6.31,8.28-14.75,7.3-23.15l-10.07-86.77c-.69-5.94,1.2-11.91,5.19-16.38,3.98-4.46,9.68-7.02,15.65-7.02h61.1c11.42,0,21.17,7.79,23.72,18.94l12.81,56.73c10.77,47.71,18.63,96.6,23.38,145.33,0,0,24.68,253.85,24.69,253.95,2.17,22.29-5.96,45.1-21.72,61.01-25.83,26.06-65.95,24.49-101.33,23.11-7.08-.28-13.79-.54-20.16-.57-3.53,3.27-4.3,8.59-1.69,12.82,6.5,10.57,11.72,25.52,15.18,35.41.94,2.69,1.98,5.67,2.61,7.21,1.79.35,5.65.03,7.42-.12,1.48-.12,2.73-.21,3.85-.22,8.41.04,17.29.4,25.4,4.2,6.92,3.24,11.74,8.88,13.58,15.88,2.13,8.08,1.35,17.6-2.04,24.86-2.77,5.94-7.72,9.78-12.66,13.05-9.3,6.16-20.65,11.09-33.71,14.65-10.04,2.74-19.07,4.09-26.95,4.09ZM80.72,10.35c-6.67,0-12.38,4.54-13.89,11.05l-14.85,64.41c-9.72,42.12-16.43,85.28-19.93,128.27L10.57,477.37c-1.51,18.44,4.56,36.09,17.1,49.69,12.53,13.6,29.62,21.09,48.12,21.09h55.7c6.74,0,13.39,1.45,19.22,4.19,8.37,3.94,16.89,7,25.91,10.25,18.88,6.79,38.41,13.82,56.71,29.37,26.22,22.28,25.64,35.79,25.02,50.1-.35,7.99-.67,15.54,3.77,25.95,7.39,17.3,36.26,11.52,48.33,8.23,12-3.27,22.34-7.74,30.72-13.29,3.67-2.43,7.31-5.18,8.99-8.79,2.37-5.09,2.92-12.09,1.4-17.85-1.34-5.11-5.07-7.79-7.96-9.14-6.21-2.91-13.81-3.18-21.07-3.22-.72-.05-1.76.09-2.94.19-5.18.43-11.63.97-15.49-2.45-1.57-1.39-2.25-3.2-5.16-11.53-3.31-9.47-8.31-23.78-14.23-33.4-5.65-9.19-3.38-20.93,5.26-27.31h0c1.14-.84,2.48-1.28,3.89-1.28,6.98,0,14.23.28,21.92.58,33.25,1.3,70.96,2.77,93.58-20.05,13.63-13.75,20.64-33.46,18.77-52.73-.04-.46-24.69-253.95-24.69-253.95-4.71-48.3-12.5-96.77-23.17-144.05l-12.81-56.72c-1.46-6.4-7.06-10.88-13.62-10.88h-61.1c-3.07,0-5.88,1.26-7.93,3.56-2.05,2.3-2.98,5.25-2.63,8.3l10.07,86.76c1.32,11.32-2.26,22.7-9.84,31.22-7.58,8.52-18.48,13.41-29.89,13.41h-76.06c-11.31,0-22.02-4.92-29.39-13.51-7.36-8.58-10.6-19.92-8.88-31.1l13.58-88.2c.4-2.62-.36-5.28-2.09-7.29-1.72-2-4.22-3.15-6.86-3.15h-62.1Z"/>
      </g>
      <rect class="cls-3" x="54.66" y="284.2" width="40.69" height="233.25" rx="20.34" ry="20.34" transform="translate(33.66 -4.86) rotate(4.78)"/>
      <rect class="cls-3" x="69.92" y="164.69" width="40.69" height="90.05" rx="20.34" ry="20.34" transform="translate(17.79 -6.79) rotate(4.78)"/>
      <path d="M322.68,442.99c-27.55,9.43-58.33,1-77.02-21.42-5.22-6.26-9.23-13.55-11.94-21.22-1.65-4.68-9.16-2.66-7.48,2.06,10.7,30.29,39.21,51.5,71.47,52.28,9.17.22,18.38-1.26,27.04-4.22,4.7-1.61,2.68-9.11-2.06-7.48h0Z"/>
      <path d="M218.49,403.19h26.79c2.1,0,3.88-1.78,3.88-3.88s-1.78-3.88-3.88-3.88h-26.79c-2.1,0-3.88,1.78-3.88,3.88s1.78,3.88,3.88,3.88h0Z"/>
      <path d="M197.06,194.77c7.64-1.66,15.27-3.33,22.91-4.99,1.09-.24,2.18-.47,3.26-.71,2.05-.45,3.24-2.83,2.71-4.77-.58-2.12-2.72-3.16-4.77-2.71-7.64,1.66-15.27,3.33-22.91,4.99-1.09.24-2.18.47-3.26.71-2.05.45-3.24,2.83-2.71,4.77.58,2.12,2.72,3.16,4.77,2.71h0Z"/>
      <path d="M362.67,182.82c7.63,1.69,15.26,3.38,22.9,5.06,1.09.24,2.17.48,3.26.72,2.04.45,4.2-.62,4.77-2.71.53-1.94-.66-4.32-2.71-4.77-7.63-1.69-15.26-3.38-22.9-5.06-1.09-.24-2.17-.48-3.26-.72-2.04-.45-4.2.62-4.77,2.71-.53,1.94.66,4.32,2.71,4.77h0Z"/>
      <path class="cls-1" d="M265.73,247.68v97.16c0,18.38-14.94,33.33-33.3,33.33s-33.33-14.94-33.33-33.33v-97.16c0-18.38,14.94-33.33,33.33-33.33s33.3,14.94,33.3,33.33Z"/>
      <path class="cls-2" d="M232.43,208.14c-21.8,0-39.54,17.74-39.54,39.54v97.16c0,21.8,17.74,39.54,39.54,39.54s39.51-17.74,39.51-39.54v-97.16c0-21.8-17.72-39.54-39.51-39.54ZM265.73,344.84c0,18.38-14.94,33.33-33.3,33.33s-33.33-14.94-33.33-33.33v-97.16c0-18.38,14.94-33.33,33.33-33.33s33.3,14.94,33.3,33.33v97.16Z"/>
      <path class="cls-2" d="M245.84,368.56h0c-12.12,0-22.03-9.91-22.03-22.03v-77.52s0-27.45,0-27.45c0-12.12,9.91-22.03,22.03-22.03h0c12.12,0,22.03,9.91,22.03,22.03v104.97c0,12.12-9.91,22.03-22.03,22.03Z"/>
      <path class="cls-4" d="M267.7,395.12c-.02.08-.04.17-.04.25l-80.58-16.48c3.56-16.99,17.1-30.18,34.36-32.93,17.16-2.75,34.32,6.44,42.37,21.63,4.47,8.4,5.84,18.22,3.89,27.53Z"/>
      <path class="cls-2" d="M275.19,397.17c-.99,4.82-8.26,2.88-7.53-1.8,0-.08.02-.17.04-.25,1.95-9.31.58-19.13-3.89-27.53-8.05-15.19-25.21-24.38-42.37-21.63-17.26,2.75-30.8,15.94-34.36,32.93-.02.08-.04.17-.06.25-.99,4.91-8.49,2.82-7.49-2.07,2.3-11.2,8.45-21.42,17.45-28.5,16.08-12.69,38.89-14.45,56.34-3.39,17.41,11.01,26.04,31.92,21.88,52Z"/>
      <rect class="cls-1" x="324.04" y="202.8" width="68.78" height="160.53" rx="34.39" ry="34.39"/>
      <path class="cls-2" d="M358.43,366.25c-20.58,0-37.32-16.74-37.32-37.32v-91.75c0-20.58,16.74-37.32,37.32-37.32s37.32,16.74,37.32,37.32v91.75c0,20.58-16.74,37.32-37.32,37.32ZM358.43,205.73c-17.35,0-31.46,14.11-31.46,31.46v91.75c0,17.35,14.11,31.46,31.46,31.46s31.46-14.11,31.46-31.46v-91.75c0-17.35-14.11-31.46-31.46-31.46Z"/>
      <path class="cls-2" d="M371.1,351.33h0c-11.44,0-20.8-9.36-20.8-20.8v-73.19s0-25.92,0-25.92c0-11.44,9.36-20.8,20.8-20.8h0c11.44,0,20.8,9.36,20.8,20.8v99.11c0,11.44-9.36,20.8-20.8,20.8Z"/>
      <path class="cls-4" d="M314.03,357.44c7.33-19.23,28.03-30.92,48.71-26.44,22.78,4.93,37.47,27.73,32.54,50.52l-81.25-24.07Z"/>
      <path class="cls-2" d="M317.56,358.41c5.64-14.39,19.95-24.36,35.39-24.7,15.4-.34,29.43,8.73,35.99,22.56,3.57,7.51,4.48,16.15,2.8,24.27-.95,4.6,6.11,6.57,7.07,1.95,3.69-17.8-3.17-36.11-17.7-47.05-14.74-11.11-35.42-11.89-51.15-2.36-8.98,5.43-15.65,13.66-19.47,23.4-1.72,4.39,5.36,6.3,7.07,1.95h0Z"/>
      <circle class="cls-1" cx="223.94" cy="258.34" r="12.94"/>
      <circle class="cls-1" cx="350.21" cy="242.81" r="9.83"/>
      <path class="cls-3" d="M202.56,376.59c.55-1.23,1.17-2.43,1.88-3.57.37-.59.76-1.15,1.16-1.72s-.06.06.19-.25c.2-.24.39-.48.6-.71.85-.97,1.76-1.89,2.73-2.73.23-.2.47-.39.7-.59.53-.44-.11.07.22-.17.54-.39,1.09-.77,1.65-1.13,1.02-.65,2.09-1.22,3.18-1.73.05-.02,1.12-.46.4-.18.28-.11.56-.22.85-.32.57-.21,1.14-.39,1.72-.56,1.22-.35,2.46-.63,3.72-.81-.83.12.35-.03.41-.03.24-.02.49-.04.73-.06.73-.05,1.46-.06,2.2-.06,2.03.01,3.97-1.79,3.88-3.88-.09-2.11-1.71-3.87-3.88-3.88-12.32-.08-24.01,7.17-29.06,18.48-.85,1.91-.55,4.17,1.39,5.31,1.66.97,4.45.53,5.31-1.39h0Z"/>
      <path class="cls-3" d="M334.86,359.12c.49-1.09,1.03-2.14,1.66-3.15.32-.52.67-1.02,1.03-1.52.34-.48-.05.05.17-.22.17-.21.35-.42.53-.63.75-.86,1.55-1.67,2.41-2.41.2-.18.41-.35.62-.52.46-.39-.09.06.2-.15.48-.35.96-.68,1.46-1,.9-.57,1.84-1.08,2.81-1.53.04-.02.99-.41.36-.16.25-.1.5-.19.75-.28.5-.18,1.01-.35,1.52-.5,1.08-.31,2.18-.55,3.29-.72-.73.11.31-.03.37-.03.21-.02.43-.04.64-.05.65-.04,1.29-.06,1.94-.05,1.79.01,3.51-1.58,3.43-3.43-.08-1.87-1.51-3.41-3.43-3.43-10.88-.07-21.2,6.33-25.66,16.32-.75,1.69-.49,3.68,1.23,4.69,1.46.86,3.93.47,4.69-1.23h0Z"/>
    </g>
  </g>
</svg>