<?xml version="1.0" encoding="UTF-8"?>
<svg id="Capa_2" data-name="Capa 2" xmlns="http://www.w3.org/2000/svg" viewBox="0 0 619.32 643">
  <defs>
    <style>
      .cls-1 {
        fill: #fff;
      }

      .cls-2 {
        fill: #1d1d1b;
      }

      .cls-3 {
        fill: #ccd379;
      }

      .cls-4 {
        fill: #a6b727;
      }
    </style>
  </defs>
  <g id="Capa_1-2" data-name="Capa 1">
    <g>
      <g>
        <path class="cls-1" d="M68.93,444.12c-2.16-2.06-13.36-2.32-14.34,2.26l-.15,57.09c-.19,3.03-2.19,4.71-5.08,5.08-8.55,1.1-31.89.87-40.72,0-1.86-.18-3.49.03-4.57-1.9l-.27-207.08,1.66-2.04,76.2-.49c57.2,4.21,85.2,76.91,49.83,120.06-2.62,3.2-11.58,9.84-11.61,13.34l22.73,75.26c-1.46,1.88-3.27,2.54-5.57,2.81-8.95,1.05-33.53,1.03-42.51,0-1.53-.18-2.9-.37-4.11-1.43l-21.49-62.98ZM51.03,390.01c27.92,26.83,68.67-17.85,38.46-43.53-28.34-24.09-65.17,17.86-38.46,43.53Z"/>
        <path class="cls-1" d="M437.2,314.85c14.25,14.15,19.65,33.03,20.67,52.72,2.31,44.54-1.84,91.04,0,135.79-.08,3.73-1.22,6.41-5.08,6.93-8.79,1.18-31.42.75-40.71,0-1.69-.14-3.38-.14-4.82-1.18l-1.6-61.64c-1.16-1.53-2.79-2.41-4.67-2.71-5-.82-19.53-.58-24.92-.1-2.85.26-6.21.82-6.86,4.22-1.16,17.97,1.47,37.65.02,55.41-.14,1.69-.14,3.38-1.18,4.82l-47.79.68-1.88-3.65c2.6-47.96-3.31-99.31,0-146.87,4.12-59.09,78.23-84.7,118.81-44.41ZM383.75,341.54c-40.86,5.56-26.75,70.6,14.32,55.87,31.78-11.4,19.8-60.51-14.32-55.87Z"/>
        <path class="cls-1" d="M548.77,444.07c5.97-1.29,8.17-11.19,2.68-14.68-2.54-1.61-17.18-1.35-21.95-2.05-84.97-12.46-68.29-135.09,16.55-132.87,32.42.85,64.98,27.02,66.89,60.54.38,6.58-.67,7.37-6.9,7.85-20.51,1.58-42.96-1.29-63.68.02-8.57,1.34-7.3,13.92-.75,15.39,4.66,1.04,11.17-.1,16.27.37,53.3,4.83,75.7,60.2,46.77,103.77-29.94,45.09-103.37,36.53-124.53-12.16-1.47-3.39-8.83-26.18-2.44-26.18h71.09Z"/>
        <path class="cls-1" d="M299.88,356.72c-6.64-80.53-126.35-84.75-138.26-4.32-1.55,10.46-1.14,20.73-.68,31.01l-.42,66.23c6.65,80.53,126.36,84.75,138.26,4.32,1.54-10.41,1.15-20.64.69-30.87l.41-66.37ZM229.8,401.14c-16.32,0-29.54-13.23-29.54-29.54s13.23-29.54,29.54-29.54,29.54,13.23,29.54,29.54-13.23,29.54-29.54,29.54Z"/>
      </g>
      <g>
        <polygon class="cls-1" points="34.41 184.31 61.21 184.31 61.21 173.92 34.41 173.92 34.41 161.41 64.5 161.41 64.5 150.86 22.87 150.86 22.87 208.21 65.57 208.21 65.57 197.67 34.41 197.67 34.41 184.31"/>
        <path class="cls-1" d="M94.07,174.46c-7.59-1.84-12.24-3.17-12.24-7.29s4.02-6.52,11.03-6.52c4.7,0,9.53,1.44,13.61,4.04l1.97,1.26,4.01-9.72-1.3-.9c-4.62-3.18-11.45-5.08-18.29-5.08-16.54,0-22.41,9.28-22.41,17.22,0,12.5,11.2,15.21,20.2,17.4,7.55,1.83,12.17,3.16,12.17,7.27,0,5.68-7.87,6.3-11.26,6.3-6.1,0-12.51-2.23-16.33-5.68l-1.95-1.76-4.56,9.62,1.05.97c4.74,4.4,13.29,7.24,21.79,7.24,16.71,0,22.64-9.24,22.64-17.15,0-12.34-11.16-15.05-20.13-17.22Z"/>
        <polygon class="cls-1" points="161.09 150.86 112.98 150.86 112.98 161.41 131.31 161.41 131.31 208.21 142.77 208.21 142.77 161.41 161.09 161.41 161.09 150.86"/>
        <path class="cls-1" d="M165.71,194.31c-4.01,0-7.15,3.14-7.15,7.14s3.14,7.22,7.15,7.22,6.99-3.17,6.99-7.22-3.07-7.14-6.99-7.14Z"/>
      </g>
      <g>
        <path class="cls-1" d="M451.19,185.3c7.79-7.46,9.38-12.67,9.38-18.21,0-10.23-7.96-16.84-20.28-16.84-8.87,0-16.55,3.21-21.07,8.82l-1.18,1.46,8.13,7.05,1.27-1.54c2.83-3.43,6.81-5.09,12.16-5.09,4.3,0,9.43,1.2,9.43,6.9,0,2.45-.47,5.31-6.13,10.81l-22.36,21.58v7.97h42.31v-10.55h-24.52l12.85-12.37Z"/>
        <path class="cls-1" d="M488.79,150.25c-14.23,0-23.79,11.77-23.79,29.29s9.56,29.29,23.79,29.29,23.71-11.77,23.71-29.29-9.53-29.29-23.71-29.29ZM488.79,198.12c-7.78,0-12.25-6.77-12.25-18.59s4.46-18.59,12.25-18.59,12.18,6.77,12.18,18.59-4.44,18.59-12.18,18.59Z"/>
        <polygon class="cls-1" points="512.64 161.41 524.71 161.41 524.71 208.21 536.17 208.21 536.17 150.86 512.64 150.86 512.64 161.41"/>
        <path class="cls-1" d="M560.9,197.67l12.85-12.37c7.79-7.46,9.38-12.67,9.38-18.21,0-10.23-7.96-16.84-20.28-16.84-8.87,0-16.55,3.21-21.07,8.82l-1.18,1.46,8.13,7.05,1.27-1.54c2.83-3.43,6.81-5.09,12.16-5.09,4.3,0,9.43,1.2,9.43,6.9,0,2.45-.47,5.31-6.13,10.81l-22.36,21.58v7.97h42.31v-10.55h-24.52Z"/>
      </g>
      <g>
        <path class="cls-4" d="M47.39,606.26l-10.84,28.16h4.9l2.26-5.88h12.55l2.26,5.88h4.9l-10.84-28.16h-5.18ZM54.61,624.16h-9.25l4.64-12.15,4.61,12.15Z"/>
        <path class="cls-4" d="M85.64,615.48c-.99-1.01-2.18-1.8-3.53-2.36-1.35-.56-2.84-.85-4.41-.85-1.85,0-3.49.33-4.88.98-.88.41-1.66.96-2.32,1.63v-10.63h-4.46v30.17h4.46v-2.24c1.72,1.76,4.13,2.65,7.2,2.65,1.57,0,3.06-.29,4.41-.85,1.35-.56,2.54-1.36,3.54-2.36.99-1,1.77-2.21,2.32-3.6.55-1.38.83-2.89.83-4.49s-.28-3.1-.83-4.47c-.55-1.37-1.33-2.57-2.32-3.58ZM84.21,623.52c0,1-.18,1.93-.52,2.79-.35.85-.83,1.6-1.43,2.21-.6.61-1.33,1.1-2.15,1.44-1.67.7-3.89.68-5.54,0-.84-.35-1.57-.83-2.17-1.43s-1.07-1.33-1.4-2.18c-.34-.86-.5-1.81-.5-2.83s.17-1.97.5-2.81c.33-.84.81-1.57,1.41-2.19.6-.61,1.33-1.09,2.16-1.42.84-.33,1.79-.5,2.81-.5s1.91.18,2.74.52c.83.35,1.55.83,2.15,1.44.6.62,1.08,1.36,1.43,2.19.35.84.52,1.77.52,2.76Z"/>
        <path class="cls-4" d="M109.15,614.88c-.66-.67-1.44-1.21-2.32-1.63-1.39-.65-3.03-.98-4.88-.98-1.57,0-3.06.29-4.41.85-1.36.57-2.54,1.36-3.53,2.36-.99,1-1.77,2.21-2.32,3.57-.55,1.36-.83,2.87-.83,4.47s.28,3.11.83,4.49c.55,1.38,1.33,2.59,2.32,3.6.99,1.01,2.18,1.8,3.53,2.36,1.35.56,2.84.85,4.41.85,3.07,0,5.49-.89,7.2-2.65v2.24h4.46v-21.79h-4.46v2.25ZM99.53,629.96c-.82-.35-1.55-.83-2.15-1.44s-1.08-1.36-1.43-2.21c-.35-.86-.52-1.79-.52-2.79s.18-1.92.52-2.76c.34-.84.83-1.58,1.43-2.19.6-.61,1.33-1.1,2.15-1.44.83-.34,1.75-.52,2.74-.52s1.97.17,2.81.5c.83.33,1.56.81,2.16,1.42.6.62,1.08,1.35,1.41,2.19.33.84.5,1.79.5,2.81s-.17,1.98-.5,2.83c-.33.85-.81,1.58-1.4,2.18-.6.6-1.33,1.08-2.17,1.43-1.65.68-3.88.7-5.54,0Z"/>
        <path class="cls-4" d="M125.88,613.53c-.97.56-1.81,1.3-2.52,2.22v-3.12h-4.46v21.79h4.46v-10.41c0-1.16.23-2.2.68-3.08.46-.89,1.06-1.66,1.77-2.26.72-.61,1.53-1.08,2.42-1.39.89-.31,1.75-.47,2.57-.47h.58v-4.58h-.58c-1.76,0-3.41.44-4.92,1.31Z"/>
        <path class="cls-4" d="M141.64,613.53c-.97.56-1.81,1.3-2.52,2.22v-3.12h-4.46v21.79h4.46v-10.41c0-1.17.23-2.2.68-3.08.46-.89,1.06-1.66,1.78-2.26.72-.61,1.53-1.08,2.42-1.39.89-.31,1.75-.47,2.57-.47h.58v-4.58h-.58c-1.76,0-3.41.44-4.92,1.31Z"/>
        <path class="cls-4" d="M168.13,615.46c-1.01-1.02-2.22-1.82-3.59-2.38-2.76-1.14-6.19-1.12-8.9,0-1.37.57-2.58,1.37-3.58,2.39-1,1.02-1.8,2.22-2.38,3.58-.58,1.37-.87,2.88-.87,4.48s.29,3.07.87,4.44c.58,1.37,1.38,2.56,2.38,3.57,1,1,2.2,1.8,3.57,2.38,1.37.58,2.88.87,4.48.87s3.07-.29,4.44-.87c1.36-.58,2.57-1.38,3.58-2.38,1.02-1,1.83-2.2,2.4-3.57.58-1.37.87-2.86.87-4.44s-.29-3.1-.87-4.47c-.58-1.37-1.39-2.57-2.4-3.59ZM166.74,623.52c0,.92-.15,1.82-.45,2.67-.3.84-.74,1.58-1.31,2.2-.57.62-1.28,1.13-2.09,1.5-1.61.73-3.96.73-5.59,0-.83-.37-1.53-.87-2.09-1.49-.56-.63-1.01-1.37-1.32-2.21-.31-.84-.47-1.74-.47-2.66s.16-1.85.47-2.68c.31-.83.76-1.58,1.32-2.22.56-.63,1.26-1.14,2.08-1.51.82-.37,1.77-.55,2.81-.55s1.98.19,2.78.55c.81.37,1.51.88,2.09,1.51.58.64,1.02,1.38,1.32,2.21.3.84.45,1.74.45,2.69Z"/>
        <path class="cls-4" d="M181.52,606.26h-4.46v6.37h-3.99v4.17h3.99v11.19c0,2.32.53,4.05,1.57,5.15,1.05,1.11,2.75,1.67,5.05,1.67.42,0,.86-.02,1.32-.06.45-.04.92-.09,1.38-.14.07,0,.2-.01.4-.05.1-.02.16-.03.2-.03h.58v-4.17h-.58s-.16.01-.39.05c-.12.02-.21.03-.28.04-.45.05-.87.1-1.26.14-1.59.16-2.62-.03-3.03-.5-.23-.28-.51-.89-.51-2.25v-11.03h6.05v-4.17h-6.05v-6.37Z"/>
        <path class="cls-4" d="M210.69,617.8c-.58-1.15-1.36-2.15-2.31-2.98-.95-.82-2.08-1.47-3.37-1.92-2.64-.93-6.02-.92-8.65.17-1.36.57-2.55,1.37-3.54,2.39-.99,1.02-1.78,2.23-2.34,3.59-.56,1.36-.85,2.87-.85,4.47s.29,3.11.85,4.47c.56,1.37,1.36,2.57,2.36,3.57,1,1,2.2,1.8,3.55,2.36,1.36.56,2.84.85,4.41.85,2.46,0,4.63-.58,6.43-1.72,1.83-1.16,3.1-2.77,3.78-4.8l.26-.76h-4.99l-.16.32c-.41.83-1.04,1.46-1.94,1.92-.92.47-1.99.7-3.19.7-.93,0-1.79-.14-2.56-.43-.77-.28-1.45-.69-2.02-1.21-.58-.53-1.06-1.16-1.43-1.89-.28-.55-.48-1.15-.61-1.8h17.33l.09-1.63c.01-.28.02-.47.02-.55,0-.39-.03-.83-.08-1.25-.11-1.41-.47-2.71-1.05-3.86ZM200.81,616.56c1.79,0,3.25.47,4.34,1.4.95.81,1.54,1.85,1.77,3.18h-12.36c.15-.53.37-1.02.63-1.47.38-.64.86-1.2,1.41-1.67.55-.46,1.19-.82,1.89-1.06.72-.25,1.49-.37,2.31-.37Z"/>
        <path class="cls-4" d="M229.1,623.16c-.8-.44-1.7-.78-2.69-1-.94-.22-1.86-.42-2.75-.61-.63-.13-1.24-.28-1.82-.44-.54-.15-1.02-.34-1.42-.57-.37-.21-.66-.47-.86-.76-.18-.26-.28-.62-.28-1.06,0-.73.28-1.27.88-1.68.65-.45,1.6-.68,2.81-.68s2.23.24,2.92.72c.64.45.98,1.04,1.02,1.8l.03.54h4.57l-.03-.6c-.09-2.05-.91-3.69-2.44-4.87-1.5-1.15-3.51-1.73-5.99-1.73s-4.54.59-6.02,1.76c-1.52,1.2-2.3,2.83-2.3,4.87,0,1.25.25,2.31.75,3.12.49.8,1.13,1.45,1.92,1.94.76.47,1.61.83,2.54,1.08.88.23,1.79.43,2.68.59.69.13,1.35.27,1.97.42.58.13,1.1.32,1.54.54.41.21.73.46.97.77.22.28.32.64.32,1.1,0,.55,0,2.21-3.9,2.21-1.42,0-2.55-.24-3.36-.71-.75-.44-1.2-1.07-1.36-1.92l-.09-.47h-4.44v.58c0,1.01.23,1.94.67,2.77.44.83,1.08,1.54,1.89,2.11.79.56,1.75,1,2.86,1.31,1.1.31,2.33.46,3.66.46,2.64,0,4.75-.58,6.25-1.73,1.55-1.18,2.34-2.84,2.34-4.93,0-1.24-.28-2.27-.83-3.07-.53-.77-1.22-1.39-2.05-1.85Z"/>
        <polygon class="cls-4" points="235.18 638.81 239.02 638.81 241.41 629.35 236.29 629.35 235.18 638.81"/>
        <path class="cls-4" d="M275.22,608.94c-.97-.85-2.15-1.52-3.5-1.99-1.35-.46-2.86-.7-4.5-.7h-10.61v28.16h4.66v-8.26h5.95c1.65,0,3.16-.24,4.5-.72,1.36-.48,2.53-1.17,3.5-2.05.97-.88,1.73-1.96,2.26-3.2.53-1.24.79-2.61.79-4.07s-.27-2.83-.8-4.04c-.53-1.21-1.29-2.26-2.26-3.13ZM261.27,610.64h5.59c2.05,0,3.7.52,4.89,1.53,1.18,1.01,1.75,2.32,1.75,4.02s-.57,3.05-1.75,4.06c-1.19,1.02-2.83,1.53-4.89,1.53h-5.59v-11.14Z"/>
        <rect class="cls-4" x="281.97" y="604.25" width="4.46" height="30.17"/>
        <path class="cls-4" d="M308.4,614.87c-.66-.67-1.44-1.21-2.32-1.63-1.39-.65-3.03-.98-4.88-.98-1.57,0-3.06.29-4.41.85s-2.54,1.36-3.53,2.36c-.99,1-1.77,2.21-2.32,3.58-.55,1.36-.83,2.87-.83,4.47s.28,3.11.83,4.49c.55,1.39,1.33,2.6,2.32,3.6.99,1.01,2.18,1.8,3.53,2.36,1.35.56,2.84.85,4.41.85,3.07,0,5.48-.89,7.2-2.64v2.24h4.46v-21.79h-4.46v2.25ZM298.78,629.96c-.83-.35-1.55-.83-2.15-1.44-.6-.62-1.08-1.36-1.43-2.21-.35-.85-.52-1.79-.52-2.79s.18-1.93.52-2.76c.34-.84.83-1.58,1.43-2.19.6-.61,1.32-1.1,2.15-1.44.83-.34,1.75-.52,2.74-.52s1.97.17,2.81.5c.83.33,1.56.81,2.16,1.42.6.62,1.08,1.35,1.41,2.19.33.84.5,1.79.5,2.81s-.17,1.98-.5,2.83c-.33.85-.8,1.58-1.4,2.18s-1.33,1.08-2.17,1.43c-1.65.68-3.88.7-5.54,0Z"/>
        <polygon class="cls-4" points="311.27 604.75 308.89 600.64 300.72 606.3 302.69 609.63 311.27 604.75"/>
        <path class="cls-4" d="M331.74,623.16c-.8-.44-1.7-.78-2.69-1-.94-.22-1.86-.42-2.75-.61-.63-.13-1.24-.28-1.82-.44-.54-.15-1.02-.34-1.42-.57-.37-.21-.66-.47-.86-.76-.18-.26-.28-.62-.28-1.06,0-.73.28-1.27.88-1.68.65-.45,1.6-.68,2.81-.68s2.23.24,2.92.72c.64.45.98,1.04,1.02,1.8l.03.54h4.57l-.03-.6c-.09-2.05-.91-3.69-2.44-4.87-1.5-1.15-3.51-1.73-5.99-1.73s-4.54.59-6.02,1.76c-1.52,1.2-2.3,2.83-2.3,4.87,0,1.25.25,2.31.75,3.12.49.8,1.13,1.45,1.92,1.94.76.47,1.61.83,2.54,1.08.88.23,1.79.43,2.68.59.69.13,1.35.27,1.97.42.58.13,1.1.32,1.54.54.41.21.73.46.97.77.22.28.32.64.32,1.1,0,.55,0,2.21-3.9,2.21-1.42,0-2.55-.24-3.36-.71-.75-.44-1.2-1.07-1.36-1.92l-.09-.47h-4.44v.58c0,1.01.23,1.94.67,2.77.44.83,1.08,1.54,1.89,2.11.79.56,1.75,1,2.86,1.31,1.1.31,2.33.46,3.66.46,2.64,0,4.75-.58,6.25-1.73,1.55-1.18,2.34-2.84,2.34-4.93,0-1.24-.28-2.27-.83-3.07-.53-.77-1.22-1.39-2.05-1.85Z"/>
        <path class="cls-4" d="M344.98,606.26h-4.46v6.37h-3.99v4.17h3.99v11.19c0,2.32.53,4.05,1.57,5.15,1.05,1.11,2.75,1.67,5.05,1.67.42,0,.86-.02,1.32-.06.45-.04.92-.09,1.38-.14.07,0,.2-.01.41-.05.1-.02.16-.03.2-.03h.58v-4.17h-.58s-.16.01-.39.05c-.13.02-.21.03-.28.04-.45.05-.87.1-1.26.14-1.59.16-2.62-.03-3.03-.5-.23-.28-.51-.89-.51-2.25v-11.03h6.05v-4.17h-6.05v-6.37Z"/>
        <rect class="cls-4" x="354.71" y="612.63" width="4.46" height="21.79"/>
        <path class="cls-4" d="M356.94,603.84c-.83,0-1.53.29-2.1.85-.57.57-.85,1.27-.85,2.1s.29,1.53.85,2.1c.57.57,1.27.85,2.1.85s1.53-.29,2.1-.85.85-1.27.85-2.1-.29-1.53-.85-2.1-1.27-.85-2.1-.85Z"/>
        <path class="cls-4" d="M369.26,618.62c.56-.64,1.26-1.14,2.08-1.51.82-.37,1.77-.55,2.81-.55,1.43,0,2.66.36,3.65,1.08,1,.72,1.72,1.64,2.14,2.74l.14.37h4.76l-.18-.72c-.29-1.13-.75-2.19-1.39-3.14-.64-.95-1.43-1.78-2.35-2.48-.92-.69-1.97-1.24-3.13-1.62-2.61-.86-5.67-.73-8.12.28-1.37.57-2.58,1.37-3.58,2.39-1,1.02-1.8,2.22-2.38,3.58-.58,1.37-.87,2.88-.87,4.48s.29,3.07.87,4.44c.58,1.37,1.38,2.56,2.38,3.57s2.2,1.8,3.57,2.38c1.37.58,2.88.87,4.48.87,1.27,0,2.49-.19,3.65-.57,1.15-.38,2.21-.92,3.13-1.59.92-.68,1.71-1.51,2.35-2.46.64-.95,1.11-2.01,1.39-3.14l.18-.72h-4.76l-.14.37c-.42,1.11-1.12,2-2.13,2.72-1,.7-2.23,1.06-3.66,1.06-1.04,0-1.99-.19-2.81-.55-.82-.37-1.52-.87-2.08-1.49-.57-.63-1.01-1.37-1.32-2.21-.31-.84-.47-1.74-.47-2.66s.16-1.85.47-2.68c.31-.83.75-1.58,1.32-2.22Z"/>
        <path class="cls-4" d="M405.95,615.46c-1.01-1.02-2.22-1.82-3.59-2.38-2.76-1.14-6.19-1.12-8.9,0-1.37.57-2.58,1.37-3.58,2.39-1,1.01-1.8,2.22-2.38,3.58-.58,1.37-.87,2.87-.87,4.48s.29,3.07.87,4.44c.58,1.37,1.38,2.57,2.38,3.57s2.2,1.8,3.57,2.38c1.37.58,2.88.87,4.48.87s3.07-.29,4.44-.87c1.36-.58,2.57-1.38,3.59-2.38,1.02-1,1.83-2.2,2.4-3.57.58-1.37.87-2.86.87-4.44s-.29-3.11-.87-4.47c-.58-1.37-1.39-2.57-2.4-3.59ZM404.56,623.52c0,.93-.15,1.82-.45,2.67-.29.83-.73,1.57-1.31,2.2-.58.62-1.28,1.13-2.09,1.5-1.61.73-3.96.73-5.59,0-.82-.37-1.52-.87-2.08-1.49-.57-.63-1.01-1.37-1.32-2.21-.31-.84-.47-1.74-.47-2.66s.16-1.85.47-2.68c.31-.83.75-1.58,1.32-2.22.56-.64,1.26-1.14,2.08-1.51.82-.37,1.77-.55,2.81-.55s1.98.19,2.78.55c.81.37,1.51.88,2.09,1.51.58.64,1.02,1.38,1.32,2.21.3.83.45,1.74.45,2.69Z"/>
        <path class="cls-4" d="M426.5,623.16c-.8-.44-1.7-.78-2.69-1-.94-.22-1.86-.42-2.75-.61-.63-.13-1.24-.28-1.82-.44-.55-.15-1.02-.34-1.42-.57-.37-.21-.66-.47-.86-.76-.18-.26-.28-.62-.28-1.06,0-.73.28-1.27.88-1.68.65-.45,1.6-.68,2.81-.68s2.23.24,2.92.72c.64.45.98,1.04,1.02,1.8l.03.54h4.57l-.02-.6c-.09-2.05-.91-3.69-2.44-4.87-1.5-1.15-3.51-1.73-5.99-1.73s-4.54.59-6.02,1.76c-1.52,1.2-2.3,2.83-2.3,4.87,0,1.26.25,2.31.75,3.12.49.8,1.13,1.45,1.92,1.94.76.47,1.61.83,2.54,1.08.88.23,1.78.43,2.68.59.69.13,1.35.27,1.97.42.58.13,1.1.32,1.54.54.41.21.73.46.97.77.22.28.32.64.32,1.1,0,.55,0,2.21-3.9,2.21-1.42,0-2.55-.24-3.36-.71-.75-.44-1.2-1.07-1.35-1.92l-.09-.47h-4.44v.58c0,1.01.23,1.94.67,2.77.44.83,1.08,1.54,1.89,2.11.79.56,1.75,1,2.86,1.31,1.1.31,2.33.46,3.66.46,2.64,0,4.75-.58,6.25-1.73,1.55-1.18,2.34-2.84,2.34-4.93,0-1.24-.28-2.27-.83-3.07-.53-.77-1.22-1.39-2.05-1.85Z"/>
        <polygon class="cls-4" points="451.06 627.64 445.48 612.63 440.65 612.63 448.69 633.67 444.99 643 449.66 643 461.81 612.63 456.98 612.63 451.06 627.64"/>
        <polygon class="cls-4" points="489.37 623.72 480.37 606.26 475.09 606.26 475.09 634.42 479.75 634.42 479.75 614.85 487.04 628.97 491.69 628.97 498.99 614.85 498.99 634.42 503.65 634.42 503.65 606.26 498.37 606.26 489.37 623.72"/>
        <polygon class="cls-4" points="529.3 604.75 526.92 600.64 518.75 606.3 520.72 609.63 529.3 604.75"/>
        <path class="cls-4" d="M526.44,614.87c-.66-.67-1.44-1.21-2.32-1.63-1.39-.65-3.03-.98-4.88-.98-1.57,0-3.06.29-4.41.85-1.36.57-2.54,1.36-3.53,2.36-.99,1-1.77,2.21-2.32,3.58-.55,1.37-.83,2.87-.83,4.47s.28,3.11.83,4.49c.55,1.38,1.33,2.59,2.32,3.6.99,1.01,2.18,1.8,3.53,2.36,1.35.56,2.84.85,4.41.85,3.07,0,5.48-.89,7.2-2.65v2.24h4.46v-21.79h-4.46v2.25ZM516.81,629.96c-.83-.35-1.55-.83-2.15-1.44-.6-.61-1.08-1.36-1.43-2.21-.35-.85-.52-1.79-.52-2.79s.18-1.92.52-2.76c.34-.84.83-1.58,1.43-2.19.6-.61,1.32-1.1,2.15-1.44.83-.35,1.75-.52,2.74-.52s1.97.17,2.81.5c.83.33,1.56.81,2.16,1.42.6.62,1.08,1.35,1.41,2.19.33.84.5,1.79.5,2.81s-.17,1.98-.5,2.83c-.33.85-.8,1.58-1.4,2.18-.6.6-1.33,1.08-2.17,1.43-1.65.68-3.87.7-5.54,0Z"/>
        <path class="cls-4" d="M549.78,623.16c-.8-.44-1.7-.78-2.69-1-.94-.22-1.86-.42-2.75-.61-.63-.13-1.24-.28-1.82-.44-.55-.15-1.02-.34-1.42-.57-.37-.21-.66-.47-.86-.76-.18-.26-.28-.62-.28-1.06,0-.73.28-1.27.88-1.68.65-.45,1.6-.68,2.81-.68s2.23.24,2.92.72c.64.45.98,1.04,1.02,1.8l.03.54h4.57l-.02-.6c-.09-2.05-.91-3.69-2.44-4.87-1.5-1.15-3.51-1.73-5.99-1.73s-4.54.59-6.02,1.76c-1.52,1.2-2.3,2.83-2.3,4.87,0,1.26.25,2.31.75,3.12.49.8,1.13,1.45,1.92,1.94.76.47,1.61.83,2.54,1.08.88.23,1.78.43,2.68.59.69.13,1.35.27,1.97.42.58.13,1.1.32,1.54.54.41.21.73.46.97.77.22.28.32.64.32,1.1,0,.55,0,2.21-3.9,2.21-1.42,0-2.55-.24-3.36-.71-.75-.44-1.2-1.07-1.35-1.92l-.09-.47h-4.44v.58c0,1.01.23,1.94.67,2.77.44.83,1.08,1.54,1.89,2.11.79.56,1.75,1,2.86,1.31,1.1.31,2.33.46,3.66.46,2.64,0,4.75-.58,6.25-1.73,1.55-1.18,2.34-2.84,2.34-4.93,0-1.24-.28-2.27-.83-3.07-.53-.77-1.22-1.39-2.05-1.85Z"/>
        <path class="cls-4" d="M559.05,628.63c-.85,0-1.59.3-2.2.89-.61.59-.92,1.33-.92,2.19s.31,1.59.91,2.2c.61.61,1.35.91,2.2.91s1.59-.31,2.19-.92c.59-.61.89-1.34.89-2.2s-.3-1.59-.89-2.18c-.59-.59-1.33-.89-2.18-.89Z"/>
        <path class="cls-4" d="M568.92,628.63c-.85,0-1.59.3-2.2.89-.61.59-.92,1.33-.92,2.19s.31,1.59.91,2.2c.61.61,1.35.91,2.2.91s1.59-.31,2.19-.92c.59-.61.89-1.34.89-2.2s-.3-1.59-.89-2.18c-.59-.59-1.33-.89-2.18-.89Z"/>
        <path class="cls-4" d="M580.98,629.52c-.59-.59-1.33-.89-2.18-.89s-1.59.3-2.2.89c-.61.59-.92,1.33-.92,2.19s.31,1.59.91,2.2c.61.61,1.35.91,2.2.91s1.59-.31,2.19-.92c.59-.61.89-1.34.89-2.2s-.3-1.59-.89-2.18Z"/>
      </g>
      <g>
        <path class="cls-1" d="M2.97,558.36c0-2.84.51-5.5,1.54-7.98,1.03-2.48,2.43-4.64,4.23-6.48,1.79-1.83,3.93-3.28,6.42-4.35,2.48-1.06,5.18-1.6,8.1-1.6,2.6,0,5.02.38,7.25,1.12,2.23.75,4.2,1.82,5.91,3.22,1.72,1.4,3.12,3.1,4.23,5.09,1.1,1.99,1.83,4.21,2.19,6.65h-9.88c-.67-2.21-1.9-3.95-3.7-5.23-1.79-1.28-3.81-1.92-6.06-1.92-1.5,0-2.9.3-4.2.89s-2.42,1.4-3.37,2.43c-.95,1.03-1.7,2.24-2.25,3.64-.55,1.4-.83,2.91-.83,4.52s.28,3.13.83,4.52c.55,1.4,1.3,2.61,2.25,3.64.95,1.03,2.07,1.83,3.37,2.42,1.3.59,2.7.89,4.2.89,2.25,0,4.27-.64,6.06-1.92,1.79-1.28,3.03-3.03,3.7-5.23h9.88c-.36,2.45-1.08,4.66-2.19,6.65-1.1,1.99-2.51,3.69-4.23,5.09-1.72,1.4-3.69,2.47-5.91,3.22-2.23.75-4.64,1.12-7.25,1.12-2.92,0-5.62-.53-8.1-1.6-2.49-1.06-4.62-2.51-6.42-4.35-1.79-1.83-3.2-3.99-4.23-6.48-1.03-2.48-1.54-5.15-1.54-7.98Z"/>
        <path class="cls-1" d="M46.67,558.36c0-2.92.52-5.62,1.57-8.1,1.04-2.48,2.48-4.63,4.32-6.45,1.83-1.81,4.01-3.24,6.54-4.29,2.52-1.04,5.24-1.57,8.16-1.57s5.69.51,8.19,1.54c2.5,1.03,4.67,2.45,6.51,4.29,1.83,1.83,3.27,3.99,4.32,6.48,1.04,2.48,1.57,5.19,1.57,8.1s-.52,5.62-1.57,8.1c-1.05,2.48-2.48,4.64-4.32,6.48-1.83,1.83-4,3.26-6.51,4.29-2.5,1.03-5.23,1.54-8.19,1.54s-5.64-.51-8.16-1.54c-2.52-1.02-4.7-2.45-6.54-4.29-1.83-1.83-3.27-3.99-4.32-6.48-1.05-2.48-1.57-5.18-1.57-8.1ZM56.26,558.3c0,1.62.28,3.13.83,4.52.55,1.4,1.32,2.6,2.31,3.61.98,1.01,2.15,1.79,3.49,2.37,1.34.57,2.8.86,4.38.86s3.04-.29,4.38-.86c1.34-.57,2.5-1.36,3.49-2.37.98-1.01,1.75-2.21,2.31-3.61.55-1.4.83-2.91.83-4.52s-.28-3.11-.83-4.47c-.55-1.36-1.32-2.54-2.31-3.55-.99-1.01-2.15-1.79-3.49-2.37-1.34-.57-2.8-.86-4.38-.86s-3.04.29-4.38.86c-1.34.57-2.5,1.36-3.49,2.37-.99,1-1.76,2.19-2.31,3.55-.55,1.36-.83,2.85-.83,4.47Z"/>
        <path class="cls-1" d="M94.05,538.55h12.95l9.05,21.71,9.05-21.71h12.95v39.63h-9.17v-28.27l-8.52,20.7h-8.69l-8.46-20.7v28.27h-9.17v-39.63Z"/>
        <path class="cls-1" d="M146.33,538.55h29.1v8.28h-19.75v8.04h16.26v7.1h-16.26v7.93h19.75v8.28h-29.1v-39.63Z"/>
        <path class="cls-1" d="M199.32,538.55c5.17,0,9.13,1.1,11.89,3.31,2.76,2.21,4.14,5.34,4.14,9.4,0,2.84-.68,5.23-2.04,7.16-1.36,1.93-3.32,3.39-5.89,4.38l8.81,15.38h-10.53l-7.69-14.02h-6.62v14.02h-9.35v-39.63h17.27ZM199.26,557c2.17,0,3.82-.44,4.97-1.33,1.14-.89,1.72-2.12,1.72-3.7s-.57-2.87-1.72-3.75c-1.14-.89-2.8-1.33-4.97-1.33h-7.87v10.11h7.87Z"/>
        <path class="cls-1" d="M220.32,558.36c0-2.84.51-5.5,1.54-7.98,1.03-2.48,2.43-4.64,4.23-6.48,1.79-1.83,3.93-3.28,6.42-4.35,2.48-1.06,5.19-1.6,8.1-1.6,2.6,0,5.02.38,7.24,1.12,2.23.75,4.2,1.82,5.91,3.22,1.72,1.4,3.12,3.1,4.23,5.09,1.1,1.99,1.83,4.21,2.19,6.65h-9.88c-.67-2.21-1.9-3.95-3.7-5.23-1.79-1.28-3.81-1.92-6.06-1.92-1.5,0-2.9.3-4.2.89-1.3.59-2.43,1.4-3.37,2.43-.95,1.03-1.7,2.24-2.25,3.64-.55,1.4-.83,2.91-.83,4.52s.28,3.13.83,4.52c.55,1.4,1.3,2.61,2.25,3.64.95,1.03,2.07,1.83,3.37,2.42,1.3.59,2.7.89,4.2.89,2.25,0,4.27-.64,6.06-1.92,1.79-1.28,3.03-3.03,3.7-5.23h9.88c-.35,2.45-1.08,4.66-2.19,6.65-1.1,1.99-2.51,3.69-4.23,5.09-1.72,1.4-3.69,2.47-5.91,3.22-2.23.75-4.64,1.12-7.24,1.12-2.92,0-5.62-.53-8.1-1.6-2.48-1.06-4.62-2.51-6.42-4.35-1.79-1.83-3.2-3.99-4.23-6.48s-1.54-5.15-1.54-7.98Z"/>
        <path class="cls-1" d="M266.1,538.55h9.35v39.63h-9.35v-39.63Z"/>
        <path class="cls-1" d="M294.6,538.55h11.18l14.55,39.63h-9.29l-2.66-7.33h-16.38l-2.66,7.33h-9.29l14.55-39.63ZM305.96,563.8l-5.74-15.91-5.8,15.91h11.53Z"/>
        <path class="cls-1" d="M324.94,538.55h9.35v31.35h16.74v8.28h-26.08v-39.63Z"/>
        <path class="cls-1" d="M356.58,538.55h9.35v39.63h-9.35v-39.63Z"/>
        <path class="cls-1" d="M383.85,570.25h18.87v7.93h-30.16v-7.93l18.93-23.78h-18.93v-7.93h30.16v7.93l-18.87,23.78Z"/>
        <path class="cls-1" d="M420.22,538.55h11.18l14.55,39.63h-9.28l-2.66-7.33h-16.38l-2.66,7.33h-9.28l14.55-39.63ZM431.58,563.8l-5.74-15.91-5.8,15.91h11.53Z"/>
        <path class="cls-1" d="M450.56,578.17v-39.63h16.38c2.92,0,5.61.49,8.07,1.48,2.46.99,4.58,2.36,6.36,4.11,1.77,1.76,3.16,3.84,4.14,6.27.98,2.42,1.48,5.08,1.48,7.95s-.49,5.54-1.48,7.98c-.99,2.45-2.37,4.53-4.14,6.27-1.77,1.73-3.89,3.1-6.36,4.08-2.46.99-5.15,1.48-8.07,1.48h-16.38ZM459.91,569.71h7.04c1.54,0,2.96-.28,4.26-.83s2.41-1.33,3.31-2.34c.91-1.01,1.62-2.21,2.13-3.61.51-1.4.77-2.95.77-4.64s-.26-3.18-.77-4.58c-.51-1.4-1.22-2.59-2.13-3.58-.91-.99-2.01-1.75-3.31-2.31-1.3-.55-2.72-.83-4.26-.83h-7.04v22.71Z"/>
        <path class="cls-1" d="M491.14,558.36c0-2.92.52-5.62,1.57-8.1,1.04-2.48,2.48-4.63,4.32-6.45,1.83-1.81,4.01-3.24,6.54-4.29,2.52-1.04,5.24-1.57,8.16-1.57s5.69.51,8.19,1.54c2.5,1.03,4.67,2.45,6.5,4.29,1.83,1.83,3.27,3.99,4.32,6.48,1.05,2.48,1.57,5.19,1.57,8.1s-.52,5.62-1.57,8.1c-1.05,2.48-2.48,4.64-4.32,6.48-1.83,1.83-4,3.26-6.5,4.29-2.51,1.03-5.23,1.54-8.19,1.54s-5.64-.51-8.16-1.54c-2.52-1.02-4.7-2.45-6.54-4.29-1.83-1.83-3.27-3.99-4.32-6.48-1.05-2.48-1.57-5.18-1.57-8.1ZM500.72,558.3c0,1.62.28,3.13.83,4.52.55,1.4,1.32,2.6,2.31,3.61.98,1.01,2.15,1.79,3.49,2.37,1.34.57,2.8.86,4.38.86s3.04-.29,4.38-.86c1.34-.57,2.5-1.36,3.49-2.37s1.75-2.21,2.31-3.61c.55-1.4.83-2.91.83-4.52s-.28-3.11-.83-4.47c-.55-1.36-1.32-2.54-2.31-3.55-.99-1.01-2.15-1.79-3.49-2.37-1.34-.57-2.8-.86-4.38-.86s-3.04.29-4.38.86c-1.34.57-2.51,1.36-3.49,2.37-.99,1-1.75,2.19-2.31,3.55-.55,1.36-.83,2.85-.83,4.47Z"/>
        <path class="cls-1" d="M555.78,538.55c5.16,0,9.13,1.1,11.89,3.31,2.76,2.21,4.14,5.34,4.14,9.4,0,2.84-.68,5.23-2.04,7.16-1.36,1.93-3.32,3.39-5.89,4.38l8.81,15.38h-10.53l-7.69-14.02h-6.62v14.02h-9.35v-39.63h17.27ZM555.72,557c2.17,0,3.82-.44,4.97-1.33,1.14-.89,1.72-2.12,1.72-3.7s-.57-2.87-1.72-3.75c-1.14-.89-2.8-1.33-4.97-1.33h-7.87v10.11h7.87Z"/>
        <path class="cls-1" d="M589.73,538.55h11.18l14.55,39.63h-9.28l-2.66-7.33h-16.38l-2.66,7.33h-9.28l14.55-39.63ZM601.08,563.8l-5.74-15.91-5.8,15.91h11.53Z"/>
      </g>
      <g>
        <path class="cls-1" d="M381.38,263.69h95.06c8.74,0,8.75-13.58,0-13.58h-95.06c-8.74,0-8.75,13.58,0,13.58h0Z"/>
        <path class="cls-1" d="M6.56,263.69h213.22c8.74,0,8.75-13.58,0-13.58H6.56c-8.74,0-8.75,13.58,0,13.58h0Z"/>
        <circle class="cls-1" cx="508.36" cy="256.22" r="14.26"/>
        <circle class="cls-1" cx="559.11" cy="256.22" r="14.26"/>
        <circle class="cls-1" cx="605.06" cy="256.22" r="14.26"/>
      </g>
      <g>
        <g>
          <path class="cls-4" d="M286.95,231.4c1.53.57,2.52,2.07,2.4,3.7-.26,3.5-3.18,7.27-3.13,7.91.07.93,2.35,3.56,2.99,4,1.9,1.3,3.76,2.75,5.1,4.65,2.11,3,2.22,7.21.69,10.49-1.42,3.06-4.25,4.75-7.35,5.76-6.53,2.13-14.17,2.14-20.86.77-2.36-.48-4.98-1.16-6.89-2.71-12.54-10.17,9.91-27.43,7.4-40.48-.12-.64.52-1.16,1.14-.94l18.5,6.85Z"/>
          <path class="cls-2" d="M276.03,271.63c-3.19,0-6.45-.32-9.64-.98-2.72-.56-5.53-1.32-7.75-3.12-8.55-6.94-3.34-16.59,1.26-25.11,3.12-5.78,6.35-11.76,5.43-16.55-.19-1,.17-2.04.96-2.7.79-.67,1.88-.86,2.85-.5l18.5,6.85c2.37.88,3.89,3.23,3.71,5.73-.21,2.79-1.74,5.56-2.66,7.21-.1.18-.21.37-.3.54.49.77,1.58,2.04,1.98,2.36,1.85,1.26,3.99,2.88,5.58,5.14,2.45,3.48,2.79,8.38.87,12.5-1.49,3.2-4.29,5.43-8.55,6.83-3.68,1.2-7.89,1.81-12.25,1.81ZM269.52,227.09c.21,5.62-2.98,11.52-6.07,17.24-5.12,9.48-7.83,15.56-2.27,20.07,1.54,1.25,3.81,1.85,6.02,2.3,6.88,1.41,14.11,1.15,19.83-.71,3.14-1.03,5.16-2.56,6.15-4.7,1.3-2.79,1.09-6.2-.52-8.48-1.22-1.73-3-3.07-4.59-4.15-.59-.4-3.71-3.52-3.87-5.5-.07-.82.28-1.44.96-2.67.81-1.45,2.03-3.65,2.17-5.55.05-.72-.4-1.4-1.09-1.66l-16.73-6.2Z"/>
        </g>
        <g>
          <path class="cls-4" d="M324.82,215.44h0c-2.5,1.85-3.16,5.3-1.53,7.95,3.72,6.06,6.48,16.43,7.16,17.03,1.15,1.01,4.48.37,5.85.38,3.02.01,6.26.14,9.04,1.44,2.07.97,3.6,2.63,4.19,4.87.69,2.64.49,5.83-.67,8.31-.87,1.86-2.54,3.14-4.21,4.25-3.79,2.51-8.16,4.24-12.54,5.44-6.47,1.76-17.84,3.48-21.19-4.35-5.1-11.94,4.46-16.01-10.66-28.85-10.12-8.6-21.39-10.28-31.7-15.13-2.07-.97-4.34-1.44-6.62-1.44h-21.68c-16.06,0-28.7-13.71-27.39-29.72l8.36-102.46c1.38-16.9,3.99-33.68,7.8-50.21l5.78-25.07c.8-3.43,3.84-5.86,7.37-5.86h24.17c3.39,0,5.99,3.02,5.47,6.39l-5.28,34.32c-1.22,7.91,4.9,15.04,12.9,15.04h29.6c8.11,0,14.4-7.07,13.46-15.12l-3.92-33.77c-.42-3.65,2.43-6.86,6.11-6.86h23.78c3.48,0,6.49,2.41,7.27,5.8l4.98,22.07c4.19,18.56,7.21,37.36,9.06,56.31,0,0,9.61,98.78,9.61,98.83.79,8.14-2.12,16.33-7.88,22.13-11.5,11.6-31.51,8.17-46.38,8.17-.12,0-.23.04-.32.11Z"/>
          <path class="cls-2" d="M322.16,268.64c-6.55,0-11.08-2.4-13.08-7.1-2.09-4.89-1.93-8.59-1.79-11.85.21-4.95.38-8.86-8.32-16.25-6.56-5.58-13.81-8.19-20.82-10.71-3.44-1.24-7.01-2.52-10.43-4.13-1.74-.82-3.73-1.25-5.76-1.25h-21.68c-8.22,0-16.12-3.46-21.69-9.51-5.57-6.04-8.38-14.2-7.71-22.4l8.36-102.46c1.38-16.92,4.02-33.91,7.85-50.49l5.78-25.07c1.01-4.37,4.85-7.42,9.33-7.42h24.17c2.2,0,4.29.96,5.73,2.63,1.44,1.67,2.07,3.89,1.74,6.07l-5.28,34.33c-.49,3.19.43,6.42,2.53,8.87,2.1,2.45,5.15,3.85,8.38,3.85h29.6c3.29,0,6.43-1.41,8.62-3.87,2.19-2.46,3.22-5.74,2.84-9.01l-3.92-33.77c-.27-2.31.47-4.64,2.02-6.37,1.55-1.74,3.77-2.73,6.09-2.73h23.78c4.45,0,8.24,3.03,9.23,7.37l4.99,22.08c4.19,18.57,7.25,37.59,9.1,56.56,0,0,9.61,98.79,9.61,98.83.84,8.68-2.32,17.55-8.45,23.74-10.05,10.14-25.66,9.53-39.43,8.99-2.75-.11-5.37-.21-7.85-.22-1.37,1.27-1.67,3.34-.66,4.99,2.53,4.11,4.56,9.93,5.91,13.78.37,1.05.77,2.2,1.01,2.8.7.14,2.2.01,2.89-.05.57-.05,1.06-.08,1.5-.09,3.27.02,6.73.16,9.88,1.63,2.69,1.26,4.57,3.45,5.29,6.18.83,3.14.52,6.85-.79,9.67-1.08,2.31-3,3.81-4.93,5.08-3.62,2.4-8.03,4.31-13.12,5.7-3.91,1.06-7.42,1.59-10.49,1.59ZM242.19,4.03c-2.59,0-4.82,1.77-5.4,4.3l-5.78,25.07c-3.78,16.39-6.39,33.19-7.76,49.92l-8.36,102.46c-.59,7.18,1.78,14.05,6.65,19.34,4.88,5.29,11.53,8.21,18.73,8.21h21.68c2.62,0,5.21.56,7.48,1.63,3.26,1.53,6.57,2.72,10.08,3.99,7.35,2.64,14.95,5.38,22.07,11.43,10.21,8.67,9.98,13.93,9.74,19.5-.13,3.11-.26,6.05,1.47,10.1,2.88,6.73,14.11,4.48,18.81,3.2,4.67-1.27,8.69-3.01,11.95-5.17,1.43-.95,2.84-2.02,3.5-3.42.92-1.98,1.14-4.71.55-6.95-.52-1.99-1.97-3.03-3.1-3.56-2.41-1.13-5.37-1.24-8.2-1.25-.28-.02-.69.03-1.14.07-2.01.17-4.52.38-6.03-.95-.61-.54-.87-1.25-2.01-4.49-1.29-3.69-3.24-9.25-5.54-13-2.2-3.57-1.32-8.14,2.05-10.63h0c.44-.33.97-.5,1.52-.5,2.72,0,5.54.11,8.53.23,12.94.51,27.61,1.08,36.42-7.8,5.3-5.35,8.03-13.02,7.31-20.52-.02-.18-9.61-98.82-9.61-98.82-1.83-18.8-4.87-37.66-9.02-56.06l-4.98-22.07c-.57-2.49-2.75-4.23-5.3-4.23h-23.78c-1.19,0-2.29.49-3.09,1.38-.8.89-1.16,2.04-1.02,3.23l3.92,33.76c.52,4.41-.88,8.84-3.83,12.15-2.95,3.32-7.19,5.22-11.63,5.22h-29.6c-4.4,0-8.57-1.92-11.44-5.26-2.87-3.34-4.13-7.75-3.46-12.1l5.28-34.32c.16-1.02-.14-2.06-.81-2.84-.67-.78-1.64-1.23-2.67-1.23h-24.17Z"/>
        </g>
        <rect class="cls-3" x="232.05" y="110.6" width="15.83" height="90.77" rx="7.92" ry="7.92" transform="translate(13.83 -19.45) rotate(4.78)"/>
        <rect class="cls-3" x="237.99" y="64.09" width="15.83" height="35.04" rx="7.92" ry="7.92" transform="translate(7.65 -20.2) rotate(4.78)"/>
        <path d="M336.35,172.39c-10.72,3.67-22.7.39-29.97-8.34-2.03-2.44-3.59-5.27-4.65-8.26-.64-1.82-3.56-1.04-2.91.8,4.17,11.79,15.26,20.04,27.81,20.35,3.57.09,7.15-.49,10.52-1.64,1.83-.63,1.04-3.54-.8-2.91h0Z"/>
        <path d="M295.8,156.9h10.43c.82,0,1.51-.69,1.51-1.51s-.69-1.51-1.51-1.51h-10.43c-.82,0-1.51.69-1.51,1.51s.69,1.51,1.51,1.51h0Z"/>
        <path d="M287.46,75.8c2.97-.65,5.94-1.29,8.92-1.94.42-.09.85-.18,1.27-.28.8-.17,1.26-1.1,1.05-1.86-.23-.82-1.06-1.23-1.86-1.05-2.97.65-5.94,1.29-8.92,1.94-.42.09-.85.18-1.27.28-.8.17-1.26,1.1-1.05,1.86.23.82,1.06,1.23,1.86,1.05h0Z"/>
        <path d="M351.91,71.14c2.97.66,5.94,1.31,8.91,1.97.42.09.85.19,1.27.28.8.18,1.63-.24,1.86-1.05.21-.76-.25-1.68-1.05-1.86-2.97-.66-5.94-1.31-8.91-1.97-.42-.09-.85-.19-1.27-.28-.8-.18-1.63.24-1.86,1.05-.21.76.25,1.68,1.05,1.86h0Z"/>
        <path class="cls-1" d="M314.19,96.39v37.81c0,7.15-5.82,12.97-12.96,12.97s-12.97-5.82-12.97-12.97v-37.81c0-7.15,5.82-12.97,12.97-12.97s12.96,5.82,12.96,12.97Z"/>
        <path class="cls-2" d="M301.23,81c-8.48,0-15.39,6.9-15.39,15.39v37.81c0,8.48,6.9,15.39,15.39,15.39s15.38-6.9,15.38-15.39v-37.81c0-8.48-6.9-15.39-15.38-15.39ZM314.19,134.2c0,7.15-5.82,12.97-12.96,12.97s-12.97-5.82-12.97-12.97v-37.81c0-7.15,5.82-12.97,12.97-12.97s12.96,5.82,12.96,12.97v37.81Z"/>
        <path class="cls-2" d="M306.44,143.43h0c-4.72,0-8.57-3.86-8.57-8.57v-30.17s0-10.68,0-10.68c0-4.72,3.86-8.57,8.57-8.57h0c4.72,0,8.57,3.86,8.57,8.57v40.85c0,4.72-3.86,8.57-8.57,8.57Z"/>
        <path class="cls-4" d="M314.95,153.76s-.02.06-.02.1l-31.36-6.41c1.39-6.61,6.65-11.74,13.37-12.82,6.68-1.07,13.36,2.51,16.49,8.42,1.74,3.27,2.27,7.09,1.51,10.71Z"/>
        <path class="cls-2" d="M317.87,154.56c-.39,1.88-3.21,1.12-2.93-.7,0-.03,0-.06.02-.1.76-3.62.23-7.44-1.51-10.71-3.13-5.91-9.81-9.49-16.49-8.42-6.72,1.07-11.99,6.2-13.37,12.82,0,.03-.02.06-.02.1-.39,1.91-3.3,1.1-2.92-.81.89-4.36,3.29-8.34,6.79-11.09,6.26-4.94,15.14-5.62,21.93-1.32,6.77,4.29,10.13,12.42,8.51,20.23Z"/>
        <rect class="cls-1" x="336.88" y="78.92" width="26.77" height="62.47" rx="13.38" ry="13.38"/>
        <path class="cls-2" d="M350.26,142.53c-8.01,0-14.52-6.51-14.52-14.52v-35.7c0-8.01,6.51-14.52,14.52-14.52s14.52,6.51,14.52,14.52v35.7c0,8.01-6.51,14.52-14.52,14.52ZM350.26,80.06c-6.75,0-12.24,5.49-12.24,12.24v35.7c0,6.75,5.49,12.24,12.24,12.24s12.24-5.49,12.24-12.24v-35.7c0-6.75-5.49-12.24-12.24-12.24Z"/>
        <path class="cls-2" d="M355.19,136.72h0c-4.45,0-8.1-3.64-8.1-8.1v-28.48s0-10.09,0-10.09c0-4.45,3.64-8.1,8.1-8.1h0c4.45,0,8.1,3.64,8.1,8.1v38.57c0,4.45-3.64,8.1-8.1,8.1Z"/>
        <path class="cls-4" d="M332.98,139.1c2.85-7.48,10.91-12.03,18.95-10.29,8.87,1.92,14.58,10.79,12.66,19.66l-31.62-9.37Z"/>
        <path class="cls-2" d="M334.36,139.48c2.19-5.6,7.76-9.48,13.77-9.61,5.99-.13,11.45,3.4,14.01,8.78,1.39,2.92,1.75,6.29,1.09,9.44-.37,1.79,2.38,2.56,2.75.76,1.44-6.93-1.24-14.05-6.89-18.31-5.74-4.32-13.78-4.63-19.9-.92-3.49,2.11-6.09,5.32-7.58,9.1-.67,1.71,2.09,2.45,2.75.76h0Z"/>
        <circle class="cls-1" cx="297.92" cy="100.53" r="5.03"/>
        <circle class="cls-1" cx="347.06" cy="94.49" r="3.83"/>
        <path class="cls-3" d="M289.6,146.55c.21-.48.46-.94.73-1.39.14-.23.3-.45.45-.67s-.02.02.07-.1c.08-.09.15-.19.23-.28.33-.38.68-.73,1.06-1.06.09-.08.18-.15.27-.23.2-.17-.04.03.09-.07.21-.15.42-.3.64-.44.4-.25.81-.48,1.24-.67.02,0,.44-.18.16-.07.11-.04.22-.09.33-.13.22-.08.44-.15.67-.22.47-.14.96-.24,1.45-.32-.32.05.13-.01.16-.01.09,0,.19-.02.28-.02.28-.02.57-.02.85-.02.79,0,1.55-.7,1.51-1.51s-.66-1.5-1.51-1.51c-4.8-.03-9.34,2.79-11.31,7.19-.33.74-.22,1.62.54,2.07.64.38,1.73.21,2.07-.54h0Z"/>
        <path class="cls-3" d="M341.09,139.75c.19-.42.4-.83.65-1.23.13-.2.26-.4.4-.59s-.02.02.07-.09c.07-.08.14-.16.21-.24.29-.33.6-.65.94-.94.08-.07.16-.14.24-.2.18-.15-.04.02.08-.06.19-.13.37-.27.57-.39.35-.22.72-.42,1.09-.59.02,0,.39-.16.14-.06.1-.04.19-.08.29-.11.19-.07.39-.14.59-.19.42-.12.85-.22,1.28-.28-.29.04.12,0,.14-.01.08,0,.17-.01.25-.02.25-.02.5-.02.75-.02.7,0,1.37-.62,1.33-1.33s-.59-1.33-1.33-1.33c-4.23-.03-8.25,2.46-9.99,6.35-.29.66-.19,1.43.48,1.82.57.33,1.53.18,1.82-.48h0Z"/>
      </g>
    </g>
  </g>
</svg>