<?xml version="1.0" encoding="UTF-8"?>
<svg id="Capa_2" data-name="Capa 2" xmlns="http://www.w3.org/2000/svg" viewBox="0 0 623.18 647">
  <defs>
    <style>
      .cls-1 {
        fill: #fff;
      }

      .cls-2 {
        fill: #1d1d1b;
      }

      .cls-3 {
        fill: #ccd379;
      }

      .cls-4 {
        fill: #a6b727;
      }
    </style>
  </defs>
  <g id="Capa_1-2" data-name="Capa 1">
    <g>
      <g>
        <path class="cls-2" d="M69.36,446.88c-2.18-2.07-13.45-2.34-14.43,2.28l-.15,57.45c-.19,3.05-2.2,4.74-5.11,5.11-8.6,1.1-32.09.87-40.98,0-1.88-.18-3.51.03-4.6-1.91l-.27-208.36,1.67-2.05,76.68-.5c57.55,4.24,85.73,77.39,50.14,120.81-2.64,3.22-11.65,9.9-11.69,13.42l22.87,75.73c-1.47,1.89-3.29,2.55-5.6,2.83-9,1.06-33.74,1.04-42.77,0-1.54-.18-2.92-.38-4.14-1.44l-21.62-63.37ZM51.35,392.43c28.1,27,69.1-17.96,38.7-43.8-28.51-24.24-65.58,17.97-38.7,43.8Z"/>
        <path class="cls-2" d="M439.92,316.81c14.34,14.23,19.77,33.23,20.8,53.05,2.33,44.82-1.86,91.61,0,136.64-.08,3.75-1.23,6.45-5.11,6.97-8.85,1.19-31.62.75-40.96,0-1.7-.14-3.41-.14-4.85-1.19l-1.61-62.02c-1.17-1.54-2.81-2.42-4.7-2.73-5.03-.82-19.66-.58-25.07-.1-2.87.26-6.25.82-6.9,4.24-1.16,18.09,1.48,37.89.02,55.76-.14,1.7-.14,3.41-1.19,4.85l-48.09.69-1.9-3.68c2.62-48.26-3.33-99.93,0-147.78,4.15-59.46,78.71-85.23,119.55-44.69ZM386.14,343.67c-41.11,5.59-26.91,71.04,14.41,56.21,31.98-11.47,19.92-60.88-14.41-56.21Z"/>
        <path class="cls-2" d="M552.18,446.83c6.01-1.3,8.22-11.26,2.69-14.77-2.55-1.62-17.29-1.36-22.09-2.06-85.5-12.54-68.72-135.93,16.66-133.7,32.62.85,65.38,27.19,67.31,60.92.38,6.62-.67,7.41-6.95,7.9-20.64,1.59-43.22-1.3-64.07.02-8.63,1.35-7.34,14.01-.75,15.49,4.69,1.05,11.24-.1,16.37.37,53.63,4.86,76.17,60.58,47.06,104.41-30.13,45.37-104.02,36.76-125.3-12.24-1.48-3.41-8.89-26.34-2.46-26.34h71.53Z"/>
        <path class="cls-2" d="M301.75,358.94c-6.68-81.03-127.13-85.28-139.12-4.35-1.56,10.52-1.14,20.86-.69,31.2l-.42,66.64c6.69,81.03,127.14,85.28,139.12,4.35,1.55-10.48,1.16-20.77.7-31.06l.41-66.78ZM231.23,403.63c-16.42,0-29.73-13.31-29.73-29.73s13.31-29.73,29.73-29.73,29.73,13.31,29.73,29.73-13.31,29.73-29.73,29.73Z"/>
      </g>
      <g>
        <polygon class="cls-2" points="34.63 185.46 61.59 185.46 61.59 175 34.63 175 34.63 162.41 64.9 162.41 64.9 151.8 23.02 151.8 23.02 209.51 65.97 209.51 65.97 198.9 34.63 198.9 34.63 185.46"/>
        <path class="cls-2" d="M94.66,175.55c-7.64-1.85-12.32-3.19-12.32-7.34s4.04-6.56,11.1-6.56c4.73,0,9.59,1.45,13.69,4.07l1.98,1.27,4.04-9.78-1.3-.9c-4.64-3.2-11.52-5.11-18.4-5.11-16.65,0-22.55,9.34-22.55,17.33,0,12.57,11.27,15.31,20.33,17.51,7.59,1.84,12.25,3.18,12.25,7.31,0,5.72-7.92,6.34-11.33,6.34-6.14,0-12.59-2.24-16.44-5.72l-1.96-1.77-4.59,9.68,1.05.98c4.77,4.43,13.37,7.28,21.93,7.28,16.82,0,22.78-9.29,22.78-17.25,0-12.42-11.23-15.14-20.26-17.33Z"/>
        <polygon class="cls-2" points="162.1 151.8 113.68 151.8 113.68 162.41 132.13 162.41 132.13 209.51 143.66 209.51 143.66 162.41 162.1 162.41 162.1 151.8"/>
        <path class="cls-2" d="M166.75,195.52c-4.03,0-7.19,3.16-7.19,7.19s3.16,7.26,7.19,7.26,7.03-3.19,7.03-7.26-3.09-7.19-7.03-7.19Z"/>
      </g>
      <g>
        <path class="cls-2" d="M454,186.45c7.84-7.51,9.44-12.75,9.44-18.32,0-10.29-8.01-16.95-20.41-16.95-8.93,0-16.65,3.23-21.2,8.88l-1.19,1.47,8.18,7.09,1.28-1.55c2.85-3.45,6.85-5.12,12.24-5.12,4.33,0,9.49,1.2,9.49,6.95,0,2.47-.48,5.35-6.16,10.88l-22.5,21.71v8.02h42.57v-10.61h-24.67l12.93-12.44Z"/>
        <path class="cls-2" d="M491.83,151.19c-14.31,0-23.93,11.84-23.93,29.47s9.62,29.47,23.93,29.47,23.86-11.84,23.86-29.47-9.59-29.47-23.86-29.47ZM491.83,199.36c-7.83,0-12.32-6.82-12.32-18.7s4.49-18.7,12.32-18.7,12.25,6.82,12.25,18.7-4.46,18.7-12.25,18.7Z"/>
        <polygon class="cls-2" points="515.83 162.41 527.97 162.41 527.97 209.51 539.51 209.51 539.51 151.8 515.83 151.8 515.83 162.41"/>
        <path class="cls-2" d="M564.39,198.9l12.93-12.44c7.84-7.51,9.44-12.75,9.44-18.32,0-10.29-8.01-16.95-20.41-16.95-8.93,0-16.65,3.23-21.2,8.88l-1.19,1.47,8.18,7.09,1.28-1.55c2.85-3.45,6.85-5.12,12.24-5.12,4.33,0,9.49,1.2,9.49,6.95,0,2.47-.48,5.35-6.16,10.88l-22.5,21.71v8.02h42.57v-10.61h-24.67Z"/>
      </g>
      <g>
        <path class="cls-1" d="M47.68,610.03l-10.91,28.33h4.93l2.27-5.92h12.63l2.27,5.92h4.93l-10.91-28.33h-5.22ZM54.95,628.04h-9.31l4.67-12.23,4.64,12.23Z"/>
        <path class="cls-1" d="M86.17,619.31c-1-1.01-2.2-1.81-3.56-2.38-1.36-.57-2.86-.86-4.44-.86-1.86,0-3.51.33-4.91.99-.89.42-1.67.97-2.34,1.64v-10.7h-4.48v30.36h4.48v-2.26c1.73,1.77,4.16,2.66,7.25,2.66,1.58,0,3.08-.29,4.44-.86,1.36-.56,2.56-1.36,3.56-2.38.99-1.01,1.78-2.23,2.33-3.62.55-1.39.83-2.91.83-4.51s-.28-3.12-.83-4.49c-.55-1.38-1.34-2.59-2.33-3.6ZM84.73,627.4c0,1-.18,1.95-.52,2.8-.35.86-.83,1.61-1.44,2.23-.61.62-1.33,1.11-2.16,1.45-1.68.7-3.92.68-5.58,0-.84-.35-1.58-.83-2.18-1.44s-1.08-1.34-1.41-2.19c-.34-.86-.51-1.82-.51-2.85s.17-1.98.51-2.83c.33-.84.81-1.58,1.42-2.2.6-.62,1.33-1.1,2.17-1.43.85-.34,1.8-.51,2.83-.51s1.93.18,2.76.52c.83.35,1.56.84,2.16,1.45.61.62,1.09,1.36,1.44,2.21.35.85.52,1.78.52,2.78Z"/>
        <path class="cls-1" d="M109.83,618.7c-.67-.67-1.45-1.22-2.34-1.64-1.4-.65-3.05-.99-4.91-.99-1.58,0-3.08.29-4.44.86-1.36.57-2.56,1.37-3.56,2.38s-1.78,2.22-2.33,3.6c-.55,1.37-.83,2.89-.83,4.49s.28,3.13.83,4.51c.55,1.39,1.34,2.61,2.34,3.62,1,1.01,2.2,1.81,3.56,2.38,1.36.57,2.86.86,4.44.86,3.09,0,5.52-.89,7.25-2.66v2.26h4.48v-21.92h-4.48v2.26ZM100.15,633.88c-.83-.35-1.56-.84-2.16-1.45s-1.09-1.37-1.44-2.22c-.35-.86-.53-1.8-.53-2.8s.18-1.93.53-2.78c.35-.84.83-1.59,1.44-2.21.61-.62,1.33-1.11,2.16-1.45.83-.35,1.76-.52,2.76-.52s1.98.17,2.83.51c.84.33,1.57.81,2.17,1.43.61.62,1.08,1.36,1.42,2.2.34.85.51,1.8.51,2.83s-.17,1.99-.51,2.85c-.33.86-.81,1.59-1.41,2.2-.61.6-1.34,1.09-2.18,1.44-1.66.68-3.9.7-5.58,0Z"/>
        <path class="cls-1" d="M126.67,617.35c-.97.56-1.82,1.31-2.54,2.24v-3.14h-4.48v21.92h4.48v-10.48c0-1.17.23-2.21.69-3.1.46-.9,1.06-1.67,1.79-2.28.73-.61,1.54-1.08,2.43-1.4.89-.31,1.76-.47,2.59-.47h.58v-4.61h-.58c-1.77,0-3.44.44-4.95,1.31Z"/>
        <path class="cls-1" d="M142.52,617.35c-.97.56-1.82,1.31-2.54,2.23v-3.14h-4.48v21.92h4.48v-10.48c0-1.17.23-2.22.69-3.1.46-.9,1.06-1.67,1.79-2.28.72-.61,1.54-1.08,2.43-1.4.89-.31,1.76-.47,2.59-.47h.58v-4.61h-.58c-1.77,0-3.44.44-4.95,1.31Z"/>
        <path class="cls-1" d="M169.17,619.29c-1.02-1.02-2.24-1.83-3.62-2.4-2.78-1.15-6.23-1.13-8.96,0-1.38.57-2.59,1.38-3.6,2.4-1.01,1.02-1.81,2.24-2.39,3.61-.58,1.38-.88,2.89-.88,4.5s.3,3.09.88,4.46c.58,1.37,1.38,2.58,2.39,3.59s2.22,1.81,3.59,2.4c1.38.58,2.89.88,4.5.88s3.08-.29,4.46-.88c1.37-.58,2.59-1.39,3.61-2.39,1.02-1.01,1.84-2.22,2.42-3.59.58-1.38.88-2.88.88-4.46s-.3-3.12-.88-4.5c-.58-1.37-1.39-2.59-2.42-3.61ZM167.78,627.4c0,.93-.15,1.83-.45,2.69-.3.84-.74,1.59-1.32,2.21-.58.63-1.29,1.13-2.1,1.51-1.62.74-3.98.74-5.63,0-.83-.37-1.54-.88-2.1-1.5-.57-.63-1.01-1.38-1.33-2.23-.31-.85-.47-1.75-.47-2.68s.16-1.86.47-2.7c.31-.84.76-1.59,1.33-2.23.56-.64,1.27-1.15,2.09-1.52.83-.37,1.78-.56,2.83-.56s1.99.19,2.8.56c.82.37,1.52.88,2.1,1.52.58.64,1.03,1.39,1.32,2.22.3.84.45,1.75.45,2.7Z"/>
        <path class="cls-1" d="M182.65,610.03h-4.48v6.41h-4.01v4.2h4.01v11.26c0,2.33.53,4.08,1.58,5.18,1.06,1.12,2.77,1.68,5.08,1.68.42,0,.87-.02,1.33-.06.45-.04.93-.09,1.39-.14.07,0,.21-.01.41-.05.1-.02.17-.03.2-.03h.58v-4.2h-.58s-.16.01-.39.05c-.13.02-.21.03-.28.04-.46.05-.88.1-1.27.14-1.6.17-2.64-.03-3.05-.51-.23-.28-.51-.89-.51-2.26v-11.1h6.08v-4.2h-6.08v-6.41Z"/>
        <path class="cls-1" d="M212,621.64c-.59-1.16-1.37-2.17-2.33-2.99-.96-.83-2.1-1.48-3.39-1.93-2.65-.93-6.06-.93-8.71.17-1.37.57-2.56,1.38-3.56,2.4-1,1.02-1.79,2.24-2.35,3.61-.57,1.37-.86,2.89-.86,4.5s.29,3.13.86,4.5c.56,1.37,1.36,2.58,2.38,3.59,1.01,1.01,2.21,1.81,3.57,2.38,1.36.57,2.86.85,4.44.85,2.48,0,4.66-.58,6.47-1.73,1.84-1.16,3.12-2.79,3.81-4.83l.26-.76h-5.02l-.16.33c-.41.84-1.05,1.47-1.95,1.93-.93.47-2.01.71-3.21.71-.93,0-1.8-.14-2.58-.43-.78-.28-1.46-.69-2.04-1.22-.58-.53-1.06-1.17-1.44-1.9-.28-.55-.49-1.16-.61-1.81h17.43l.09-1.64c.01-.29.02-.47.02-.56,0-.4-.03-.83-.08-1.26-.11-1.42-.47-2.73-1.05-3.89ZM202.06,620.4c1.8,0,3.27.47,4.37,1.4.96.81,1.55,1.86,1.78,3.2h-12.44c.16-.53.37-1.03.64-1.48.38-.64.86-1.21,1.42-1.68.55-.47,1.19-.82,1.9-1.07.72-.25,1.5-.37,2.33-.37Z"/>
        <path class="cls-1" d="M230.52,627.04c-.8-.44-1.71-.78-2.71-1.01-.95-.22-1.87-.42-2.77-.61-.64-.13-1.25-.28-1.83-.44-.55-.15-1.03-.34-1.43-.57-.37-.21-.66-.47-.87-.76-.19-.26-.28-.62-.28-1.06,0-.74.28-1.27.89-1.69.65-.46,1.61-.69,2.83-.69s2.24.24,2.93.73c.65.45.99,1.04,1.03,1.81l.03.55h4.6l-.03-.6c-.09-2.06-.92-3.71-2.46-4.9-1.51-1.16-3.53-1.74-6.03-1.74s-4.57.59-6.06,1.77c-1.53,1.21-2.31,2.85-2.31,4.9,0,1.26.25,2.32.75,3.14.49.8,1.14,1.46,1.93,1.95.76.48,1.62.84,2.55,1.08.89.23,1.8.43,2.69.6.69.13,1.36.27,1.99.42.58.14,1.11.32,1.55.54.41.21.74.46.98.77.22.28.32.64.32,1.1,0,.55,0,2.22-3.92,2.22-1.43,0-2.57-.24-3.38-.71-.76-.44-1.21-1.07-1.36-1.94l-.09-.47h-4.47v.58c0,1.01.23,1.95.68,2.79.45.83,1.08,1.55,1.9,2.13.8.56,1.76,1.01,2.87,1.32,1.1.31,2.34.47,3.69.47,2.66,0,4.78-.59,6.29-1.74,1.56-1.19,2.36-2.86,2.36-4.96,0-1.25-.28-2.29-.83-3.09-.54-.78-1.23-1.4-2.06-1.86Z"/>
        <polygon class="cls-1" points="236.65 642.78 240.51 642.78 242.91 633.27 237.76 633.27 236.65 642.78"/>
        <path class="cls-1" d="M276.94,612.73c-.97-.86-2.16-1.53-3.52-2-1.35-.47-2.88-.7-4.53-.7h-10.68v28.33h4.69v-8.31h5.99c1.66,0,3.18-.24,4.53-.72,1.36-.48,2.55-1.18,3.52-2.07.98-.89,1.74-1.97,2.27-3.22.53-1.24.8-2.62.8-4.1s-.27-2.84-.8-4.06c-.53-1.22-1.3-2.28-2.28-3.14ZM262.9,614.44h5.62c2.06,0,3.72.52,4.92,1.54,1.19,1.02,1.76,2.34,1.76,4.04s-.58,3.06-1.76,4.08c-1.2,1.02-2.85,1.54-4.92,1.54h-5.62v-11.21Z"/>
        <rect class="cls-1" x="283.72" y="608" width="4.48" height="30.36"/>
        <path class="cls-1" d="M310.32,618.7c-.67-.67-1.45-1.22-2.34-1.64-1.4-.65-3.05-.99-4.91-.99-1.58,0-3.08.29-4.44.86s-2.56,1.37-3.55,2.38c-1,1.01-1.78,2.22-2.34,3.6-.55,1.37-.83,2.89-.83,4.49s.28,3.13.83,4.51c.56,1.39,1.34,2.61,2.34,3.62,1,1.01,2.2,1.81,3.56,2.38,1.36.57,2.86.86,4.44.86,3.09,0,5.52-.89,7.25-2.66v2.26h4.49v-21.92h-4.49v2.26ZM300.64,633.88c-.83-.35-1.56-.84-2.16-1.45-.61-.62-1.09-1.37-1.44-2.23-.35-.86-.53-1.8-.53-2.8s.18-1.94.53-2.78c.35-.84.83-1.59,1.44-2.21.6-.62,1.33-1.11,2.16-1.45.83-.35,1.76-.52,2.76-.52s1.98.17,2.83.51c.84.33,1.57.81,2.17,1.43.61.62,1.08,1.36,1.42,2.2.34.85.51,1.8.51,2.83s-.17,1.99-.51,2.85c-.33.85-.81,1.59-1.41,2.19s-1.34,1.09-2.18,1.44c-1.66.68-3.9.7-5.58,0Z"/>
        <polygon class="cls-1" points="313.2 608.51 310.81 604.38 302.59 610.07 304.57 613.42 313.2 608.51"/>
        <path class="cls-1" d="M333.81,627.04c-.8-.44-1.71-.78-2.71-1.01-.95-.22-1.87-.42-2.77-.61-.64-.13-1.25-.28-1.83-.44-.55-.15-1.03-.34-1.43-.57-.37-.21-.66-.47-.87-.76-.19-.26-.28-.62-.28-1.06,0-.74.28-1.27.89-1.69.65-.46,1.61-.69,2.83-.69s2.24.24,2.93.73c.65.45.99,1.04,1.03,1.81l.03.55h4.6l-.03-.6c-.09-2.06-.92-3.71-2.46-4.9-1.51-1.16-3.53-1.74-6.03-1.74s-4.57.59-6.06,1.77c-1.53,1.21-2.31,2.85-2.31,4.9,0,1.26.25,2.32.75,3.14.49.8,1.14,1.46,1.93,1.95.76.48,1.62.84,2.55,1.08.89.23,1.8.43,2.69.6.69.13,1.36.27,1.99.42.58.14,1.11.32,1.55.54.41.21.74.46.98.77.22.28.32.64.32,1.1,0,.55,0,2.22-3.92,2.22-1.43,0-2.57-.24-3.38-.71-.76-.44-1.21-1.07-1.36-1.94l-.09-.47h-4.47v.58c0,1.01.23,1.95.68,2.79.45.83,1.08,1.55,1.9,2.13.8.56,1.76,1.01,2.87,1.32,1.1.31,2.34.47,3.69.47,2.66,0,4.78-.59,6.29-1.74,1.56-1.19,2.36-2.86,2.36-4.96,0-1.25-.28-2.29-.83-3.09-.54-.78-1.23-1.4-2.06-1.86Z"/>
        <path class="cls-1" d="M347.12,610.03h-4.48v6.41h-4.01v4.2h4.01v11.26c0,2.33.53,4.08,1.58,5.18,1.06,1.12,2.77,1.68,5.08,1.68.42,0,.86-.02,1.33-.06.45-.04.93-.09,1.39-.14.07,0,.21-.01.41-.05.1-.02.16-.03.2-.03h.58v-4.2h-.58s-.16.01-.39.05c-.13.02-.21.03-.29.04-.46.05-.88.1-1.27.14-1.6.17-2.64-.03-3.05-.51-.23-.28-.51-.9-.51-2.26v-11.1h6.08v-4.2h-6.08v-6.41Z"/>
        <rect class="cls-1" x="356.91" y="616.44" width="4.48" height="21.92"/>
        <path class="cls-1" d="M359.16,607.6c-.83,0-1.54.29-2.11.86-.57.57-.86,1.28-.86,2.11s.29,1.54.86,2.11c.57.57,1.28.86,2.11.86s1.54-.29,2.11-.86.86-1.28.86-2.11-.29-1.54-.86-2.11-1.28-.86-2.11-.86Z"/>
        <path class="cls-1" d="M371.55,622.47c.56-.64,1.27-1.15,2.09-1.52.83-.37,1.78-.56,2.83-.56,1.44,0,2.67.37,3.68,1.09,1.01.72,1.73,1.65,2.15,2.76l.14.37h4.79l-.18-.72c-.29-1.14-.76-2.21-1.4-3.16-.64-.96-1.44-1.79-2.36-2.49-.93-.7-1.99-1.24-3.15-1.63-2.63-.87-5.7-.74-8.17.28-1.38.57-2.59,1.38-3.6,2.4-1.01,1.02-1.81,2.24-2.39,3.61-.58,1.38-.88,2.89-.88,4.5s.3,3.09.88,4.46c.58,1.37,1.38,2.58,2.39,3.59s2.22,1.81,3.59,2.4c1.38.58,2.89.88,4.5.88,1.27,0,2.51-.19,3.67-.58,1.16-.38,2.22-.92,3.14-1.6.93-.68,1.72-1.52,2.37-2.47.64-.96,1.11-2.02,1.4-3.16l.18-.72h-4.79l-.14.37c-.42,1.12-1.12,2.01-2.14,2.73-1,.71-2.24,1.07-3.68,1.07-1.05,0-2-.19-2.83-.56-.83-.37-1.53-.88-2.1-1.5-.57-.63-1.02-1.38-1.33-2.23-.31-.85-.47-1.75-.47-2.68s.16-1.86.47-2.7c.31-.84.76-1.59,1.33-2.23Z"/>
        <path class="cls-1" d="M408.47,619.29c-1.02-1.02-2.24-1.83-3.62-2.4-2.78-1.15-6.23-1.13-8.96,0-1.38.57-2.59,1.38-3.6,2.4-1.01,1.02-1.81,2.23-2.39,3.61-.58,1.37-.88,2.89-.88,4.5s.3,3.09.88,4.46c.58,1.37,1.39,2.58,2.4,3.59s2.22,1.81,3.59,2.4c1.38.58,2.89.88,4.5.88s3.08-.3,4.46-.88c1.37-.58,2.59-1.39,3.61-2.39,1.02-1.01,1.84-2.22,2.42-3.59.58-1.38.88-2.88.88-4.46s-.3-3.13-.88-4.5c-.58-1.37-1.39-2.59-2.42-3.61ZM407.08,627.4c0,.93-.15,1.84-.45,2.69-.29.84-.74,1.58-1.32,2.21-.58.63-1.29,1.13-2.11,1.51-1.62.74-3.98.74-5.63,0-.83-.37-1.53-.88-2.1-1.5-.57-.63-1.02-1.38-1.33-2.23-.31-.85-.47-1.75-.47-2.68s.16-1.86.47-2.7c.31-.84.76-1.59,1.33-2.23.56-.64,1.27-1.15,2.09-1.52.83-.37,1.78-.56,2.83-.56s1.99.19,2.8.56c.81.37,1.52.88,2.1,1.52.58.64,1.03,1.39,1.32,2.22.3.84.45,1.75.45,2.7Z"/>
        <path class="cls-1" d="M429.15,627.04c-.8-.44-1.71-.78-2.71-1.01-.95-.22-1.87-.42-2.77-.61-.64-.13-1.25-.28-1.83-.44-.55-.15-1.03-.34-1.43-.57-.37-.21-.66-.47-.87-.76-.18-.26-.28-.62-.28-1.06,0-.74.28-1.27.89-1.69.65-.46,1.61-.69,2.83-.69s2.24.24,2.93.73c.65.45.99,1.04,1.03,1.81l.03.55h4.6l-.02-.6c-.09-2.06-.91-3.71-2.46-4.9-1.51-1.16-3.53-1.74-6.03-1.74s-4.57.59-6.06,1.77c-1.53,1.21-2.31,2.85-2.31,4.9,0,1.27.25,2.32.75,3.14.49.8,1.14,1.46,1.93,1.95.76.47,1.62.84,2.55,1.08.89.23,1.8.43,2.69.6.69.13,1.36.27,1.99.42.58.14,1.11.32,1.55.54.41.21.74.46.98.77.22.28.32.64.32,1.1,0,.55,0,2.22-3.92,2.22-1.43,0-2.57-.24-3.38-.71-.76-.44-1.21-1.07-1.36-1.93l-.09-.48h-4.47v.58c0,1.01.23,1.95.68,2.79.45.84,1.09,1.55,1.9,2.13.8.56,1.76,1.01,2.87,1.32,1.1.31,2.34.47,3.69.47,2.66,0,4.78-.59,6.29-1.74,1.56-1.19,2.36-2.86,2.36-4.96,0-1.25-.28-2.29-.83-3.09-.54-.77-1.23-1.4-2.06-1.86Z"/>
        <polygon class="cls-1" points="453.86 631.54 448.25 616.44 443.4 616.44 451.48 637.62 447.76 647 452.46 647 464.68 616.44 459.82 616.44 453.86 631.54"/>
        <polygon class="cls-1" points="492.41 627.6 483.36 610.03 478.05 610.03 478.05 638.36 482.73 638.36 482.73 618.67 490.07 632.89 494.75 632.89 502.09 618.67 502.09 638.36 506.78 638.36 506.78 610.03 501.47 610.03 492.41 627.6"/>
        <polygon class="cls-1" points="532.59 608.51 530.2 604.38 521.98 610.07 523.96 613.42 532.59 608.51"/>
        <path class="cls-1" d="M529.71,618.7c-.67-.67-1.45-1.22-2.34-1.64-1.4-.65-3.05-.99-4.91-.99-1.58,0-3.08.29-4.44.86-1.36.57-2.56,1.37-3.55,2.38-1,1.01-1.78,2.22-2.34,3.6-.55,1.37-.83,2.89-.83,4.49s.28,3.13.83,4.51c.55,1.39,1.34,2.61,2.34,3.62,1,1.01,2.19,1.81,3.56,2.38,1.36.57,2.86.86,4.44.86,3.09,0,5.52-.89,7.25-2.66v2.26h4.48v-21.92h-4.48v2.26ZM520.03,633.88c-.83-.35-1.56-.84-2.16-1.45-.61-.62-1.09-1.37-1.44-2.23-.35-.86-.53-1.8-.53-2.8s.18-1.94.53-2.78c.35-.84.83-1.59,1.44-2.21.6-.62,1.33-1.11,2.16-1.45.83-.35,1.76-.52,2.76-.52s1.98.17,2.83.51c.84.33,1.57.81,2.17,1.43.61.62,1.08,1.36,1.42,2.2.34.85.51,1.8.51,2.83s-.17,1.99-.51,2.85c-.33.85-.81,1.59-1.41,2.19-.61.61-1.34,1.09-2.18,1.44-1.66.68-3.9.7-5.58,0Z"/>
        <path class="cls-1" d="M553.2,627.04c-.8-.44-1.71-.78-2.71-1.01-.95-.22-1.87-.42-2.77-.61-.64-.13-1.25-.28-1.83-.44-.55-.15-1.03-.34-1.43-.57-.37-.21-.66-.47-.87-.76-.18-.26-.28-.62-.28-1.06,0-.74.28-1.27.89-1.69.65-.46,1.61-.69,2.83-.69s2.24.24,2.93.73c.65.45.99,1.04,1.03,1.81l.03.55h4.6l-.02-.6c-.09-2.06-.91-3.71-2.46-4.9-1.51-1.16-3.53-1.74-6.03-1.74s-4.57.59-6.06,1.77c-1.53,1.21-2.31,2.85-2.31,4.9,0,1.27.25,2.32.75,3.14.49.8,1.14,1.46,1.93,1.95.76.47,1.62.84,2.55,1.08.89.23,1.8.43,2.69.6.69.13,1.36.27,1.99.42.58.14,1.11.32,1.55.54.41.21.74.46.98.77.22.28.32.64.32,1.1,0,.55,0,2.22-3.92,2.22-1.43,0-2.57-.24-3.38-.71-.76-.44-1.21-1.07-1.36-1.93l-.09-.48h-4.47v.58c0,1.01.23,1.95.68,2.79.45.84,1.09,1.55,1.9,2.13.8.56,1.76,1.01,2.87,1.32,1.1.31,2.34.47,3.69.47,2.66,0,4.78-.59,6.29-1.74,1.56-1.19,2.36-2.86,2.36-4.96,0-1.25-.28-2.29-.83-3.09-.54-.77-1.23-1.4-2.06-1.86Z"/>
        <path class="cls-1" d="M562.53,632.54c-.86,0-1.6.3-2.21.89-.61.6-.93,1.34-.93,2.2s.31,1.6.92,2.21c.61.61,1.36.92,2.21.92s1.6-.31,2.2-.93c.59-.61.89-1.35.89-2.21s-.3-1.6-.9-2.19c-.6-.6-1.34-.9-2.19-.9Z"/>
        <path class="cls-1" d="M572.46,632.54c-.86,0-1.6.3-2.21.89-.61.6-.93,1.34-.93,2.2s.31,1.6.92,2.21c.61.61,1.36.92,2.21.92s1.6-.31,2.2-.93c.59-.61.89-1.35.89-2.21s-.3-1.6-.9-2.19c-.6-.6-1.34-.9-2.19-.9Z"/>
        <path class="cls-1" d="M584.59,633.44c-.6-.6-1.34-.9-2.19-.9s-1.6.3-2.21.89c-.61.6-.93,1.34-.93,2.2s.31,1.6.92,2.21c.61.61,1.36.92,2.21.92s1.6-.31,2.2-.93c.59-.61.89-1.35.89-2.21s-.3-1.6-.9-2.19Z"/>
      </g>
      <g>
        <path class="cls-2" d="M2.99,561.83c0-2.86.51-5.53,1.55-8.03,1.03-2.5,2.45-4.67,4.25-6.52,1.81-1.84,3.96-3.3,6.46-4.37,2.5-1.07,5.22-1.61,8.15-1.61,2.62,0,5.05.38,7.29,1.13,2.24.75,4.23,1.84,5.95,3.24,1.73,1.41,3.14,3.12,4.25,5.12,1.11,2,1.85,4.24,2.2,6.7h-9.94c-.68-2.22-1.91-3.98-3.72-5.27-1.81-1.29-3.84-1.93-6.1-1.93-1.51,0-2.92.3-4.23.89s-2.44,1.41-3.39,2.44c-.95,1.03-1.71,2.25-2.26,3.66-.56,1.41-.83,2.93-.83,4.55s.28,3.14.83,4.55c.56,1.41,1.31,2.63,2.26,3.66.95,1.03,2.08,1.84,3.39,2.44,1.31.6,2.72.89,4.23.89,2.26,0,4.29-.64,6.1-1.93,1.8-1.29,3.04-3.04,3.72-5.27h9.94c-.36,2.46-1.09,4.69-2.2,6.7-1.11,2-2.53,3.71-4.25,5.12-1.73,1.41-3.71,2.49-5.95,3.24-2.24.75-4.67,1.13-7.29,1.13-2.94,0-5.65-.54-8.15-1.61-2.5-1.07-4.65-2.53-6.46-4.37-1.8-1.84-3.22-4.02-4.25-6.52-1.03-2.5-1.55-5.18-1.55-8.03Z"/>
        <path class="cls-2" d="M46.96,561.83c0-2.94.53-5.65,1.58-8.15,1.05-2.5,2.5-4.66,4.34-6.49,1.85-1.82,4.04-3.26,6.58-4.31,2.54-1.05,5.28-1.58,8.21-1.58s5.72.52,8.24,1.55c2.52,1.03,4.7,2.47,6.55,4.32,1.85,1.84,3.29,4.02,4.34,6.52,1.05,2.5,1.58,5.22,1.58,8.15s-.53,5.65-1.58,8.15c-1.05,2.5-2.5,4.67-4.34,6.52-1.85,1.85-4.03,3.28-6.55,4.31-2.52,1.03-5.27,1.55-8.24,1.55s-5.67-.52-8.21-1.55c-2.54-1.03-4.73-2.47-6.58-4.31-1.85-1.84-3.29-4.02-4.34-6.52-1.05-2.5-1.58-5.22-1.58-8.15ZM56.61,561.77c0,1.63.28,3.14.83,4.55.56,1.41,1.33,2.62,2.32,3.63.99,1.01,2.16,1.81,3.51,2.38,1.35.58,2.82.86,4.4.86s3.06-.29,4.4-.86c1.35-.57,2.52-1.37,3.51-2.38.99-1.01,1.77-2.22,2.32-3.63.56-1.41.83-2.93.83-4.55s-.28-3.12-.83-4.49c-.56-1.37-1.33-2.56-2.32-3.57-.99-1.01-2.16-1.81-3.51-2.38-1.35-.57-2.82-.86-4.4-.86s-3.06.29-4.4.86c-1.35.58-2.52,1.37-3.51,2.38-.99,1.01-1.77,2.2-2.32,3.57s-.83,2.87-.83,4.49Z"/>
        <path class="cls-2" d="M94.63,541.9h13.03l9.11,21.84,9.11-21.84h13.03v39.87h-9.22v-28.45l-8.57,20.83h-8.75l-8.51-20.83v28.45h-9.22v-39.87Z"/>
        <path class="cls-2" d="M147.24,541.9h29.28v8.33h-19.88v8.09h16.37v7.14h-16.37v7.97h19.88v8.33h-29.28v-39.87Z"/>
        <path class="cls-2" d="M200.56,541.9c5.2,0,9.18,1.11,11.96,3.33,2.78,2.22,4.17,5.38,4.17,9.46,0,2.86-.68,5.26-2.05,7.2-1.37,1.94-3.34,3.41-5.92,4.4l8.87,15.47h-10.59l-7.74-14.1h-6.67v14.1h-9.4v-39.87h17.38ZM200.5,560.46c2.18,0,3.85-.45,5-1.34,1.15-.89,1.73-2.13,1.73-3.72s-.58-2.89-1.73-3.78c-1.15-.89-2.82-1.34-5-1.34h-7.92v10.18h7.92Z"/>
        <path class="cls-2" d="M221.69,561.83c0-2.86.52-5.53,1.55-8.03,1.03-2.5,2.45-4.67,4.26-6.52,1.8-1.84,3.96-3.3,6.46-4.37,2.5-1.07,5.22-1.61,8.15-1.61,2.62,0,5.05.38,7.29,1.13,2.24.75,4.23,1.84,5.95,3.24,1.73,1.41,3.14,3.12,4.26,5.12,1.11,2,1.85,4.24,2.2,6.7h-9.94c-.68-2.22-1.91-3.98-3.72-5.27-1.81-1.29-3.84-1.93-6.1-1.93-1.51,0-2.92.3-4.23.89-1.31.59-2.44,1.41-3.39,2.44-.95,1.03-1.71,2.25-2.26,3.66-.56,1.41-.83,2.93-.83,4.55s.28,3.14.83,4.55c.56,1.41,1.31,2.63,2.26,3.66.95,1.03,2.08,1.84,3.39,2.44,1.31.6,2.72.89,4.23.89,2.26,0,4.29-.64,6.1-1.93,1.8-1.29,3.04-3.04,3.72-5.27h9.94c-.36,2.46-1.09,4.69-2.2,6.7-1.11,2-2.53,3.71-4.26,5.12-1.73,1.41-3.71,2.49-5.95,3.24-2.24.75-4.67,1.13-7.29,1.13-2.94,0-5.65-.54-8.15-1.61-2.5-1.07-4.65-2.53-6.46-4.37-1.81-1.84-3.22-4.02-4.26-6.52s-1.55-5.18-1.55-8.03Z"/>
        <path class="cls-2" d="M267.75,541.9h9.4v39.87h-9.4v-39.87Z"/>
        <path class="cls-2" d="M296.44,541.9h11.25l14.64,39.87h-9.34l-2.68-7.38h-16.48l-2.68,7.38h-9.34l14.64-39.87ZM307.86,567.31l-5.77-16.01-5.83,16.01h11.6Z"/>
        <path class="cls-2" d="M326.96,541.9h9.4v31.54h16.84v8.33h-26.25v-39.87Z"/>
        <path class="cls-2" d="M358.8,541.9h9.4v39.87h-9.4v-39.87Z"/>
        <path class="cls-2" d="M386.24,573.79h18.98v7.97h-30.35v-7.97l19.04-23.92h-19.04v-7.97h30.35v7.97l-18.98,23.92Z"/>
        <path class="cls-2" d="M422.84,541.9h11.25l14.64,39.87h-9.34l-2.68-7.38h-16.48l-2.68,7.38h-9.34l14.64-39.87ZM434.26,567.31l-5.77-16.01-5.83,16.01h11.6Z"/>
        <path class="cls-2" d="M453.37,581.77v-39.87h16.48c2.94,0,5.64.5,8.12,1.49,2.48.99,4.61,2.37,6.4,4.14,1.79,1.77,3.17,3.87,4.17,6.31.99,2.44,1.49,5.11,1.49,8s-.5,5.57-1.49,8.03c-.99,2.46-2.38,4.56-4.17,6.31-1.78,1.75-3.92,3.12-6.4,4.11-2.48.99-5.19,1.49-8.12,1.49h-16.48ZM462.77,573.26h7.08c1.55,0,2.98-.28,4.28-.83,1.31-.56,2.42-1.34,3.33-2.35.91-1.01,1.63-2.22,2.14-3.63.51-1.41.77-2.97.77-4.67s-.26-3.2-.77-4.61c-.52-1.41-1.23-2.61-2.14-3.6-.91-.99-2.02-1.77-3.33-2.32-1.31-.56-2.74-.83-4.28-.83h-7.08v22.85Z"/>
        <path class="cls-2" d="M494.19,561.83c0-2.94.52-5.65,1.58-8.15,1.05-2.5,2.5-4.66,4.34-6.49,1.85-1.82,4.04-3.26,6.58-4.31,2.54-1.05,5.28-1.58,8.21-1.58s5.72.52,8.24,1.55c2.52,1.03,4.7,2.47,6.55,4.32,1.85,1.84,3.29,4.02,4.34,6.52,1.05,2.5,1.58,5.22,1.58,8.15s-.53,5.65-1.58,8.15c-1.05,2.5-2.5,4.67-4.34,6.52-1.85,1.85-4.03,3.28-6.55,4.31-2.52,1.03-5.27,1.55-8.24,1.55s-5.68-.52-8.21-1.55c-2.54-1.03-4.73-2.47-6.58-4.31-1.85-1.84-3.29-4.02-4.34-6.52-1.05-2.5-1.58-5.22-1.58-8.15ZM503.83,561.77c0,1.63.28,3.14.83,4.55.56,1.41,1.33,2.62,2.32,3.63.99,1.01,2.16,1.81,3.51,2.38,1.35.58,2.82.86,4.4.86s3.05-.29,4.4-.86c1.35-.57,2.52-1.37,3.51-2.38.99-1.01,1.77-2.22,2.32-3.63.56-1.41.83-2.93.83-4.55s-.28-3.12-.83-4.49c-.56-1.37-1.33-2.56-2.32-3.57-.99-1.01-2.16-1.81-3.51-2.38-1.35-.57-2.82-.86-4.4-.86s-3.06.29-4.4.86c-1.35.58-2.52,1.37-3.51,2.38-.99,1.01-1.77,2.2-2.32,3.57-.56,1.37-.83,2.87-.83,4.49Z"/>
        <path class="cls-2" d="M559.24,541.9c5.2,0,9.18,1.11,11.96,3.33,2.78,2.22,4.17,5.38,4.17,9.46,0,2.86-.68,5.26-2.05,7.2-1.37,1.94-3.34,3.41-5.92,4.4l8.87,15.47h-10.59l-7.74-14.1h-6.66v14.1h-9.4v-39.87h17.38ZM559.18,560.46c2.18,0,3.85-.45,5-1.34,1.15-.89,1.73-2.13,1.73-3.72s-.58-2.89-1.73-3.78c-1.15-.89-2.82-1.34-5-1.34h-7.92v10.18h7.92Z"/>
        <path class="cls-2" d="M593.4,541.9h11.25l14.64,39.87h-9.34l-2.68-7.38h-16.48l-2.68,7.38h-9.34l14.64-39.87ZM604.82,567.31l-5.77-16.01-5.83,16.01h11.6Z"/>
      </g>
      <g>
        <path class="cls-1" d="M383.76,265.33h95.66c8.79,0,8.81-13.67,0-13.67h-95.66c-8.79,0-8.81,13.67,0,13.67h0Z"/>
        <path class="cls-1" d="M6.6,265.33h214.54c8.79,0,8.81-13.67,0-13.67H6.6c-8.79,0-8.81,13.67,0,13.67h0Z"/>
        <circle class="cls-1" cx="511.53" cy="257.82" r="14.35"/>
        <circle class="cls-1" cx="562.58" cy="257.82" r="14.35"/>
        <circle class="cls-1" cx="608.83" cy="257.82" r="14.35"/>
      </g>
      <g>
        <g>
          <path class="cls-4" d="M288.74,232.84c1.54.57,2.54,2.08,2.42,3.72-.26,3.52-3.2,7.32-3.15,7.96.07.93,2.36,3.58,3.01,4.02,1.91,1.31,3.78,2.77,5.13,4.68,2.13,3.02,2.23,7.26.7,10.55-1.43,3.08-4.28,4.78-7.4,5.8-6.57,2.15-14.26,2.16-20.99.77-2.37-.49-5.01-1.17-6.93-2.73-12.62-10.23,9.97-27.6,7.45-40.73-.12-.65.53-1.17,1.14-.94l18.61,6.89Z"/>
          <path class="cls-2" d="M277.75,273.32c-3.21,0-6.49-.33-9.7-.99-2.73-.56-5.57-1.33-7.8-3.14-8.61-6.98-3.36-16.7,1.27-25.27,3.14-5.82,6.39-11.83,5.47-16.66-.19-1.01.18-2.05.96-2.72.79-.67,1.89-.87,2.87-.51l18.61,6.89c2.38.88,3.92,3.25,3.73,5.77-.21,2.8-1.75,5.59-2.68,7.26-.1.18-.21.37-.3.55.49.77,1.59,2.06,2,2.38,1.86,1.27,4.02,2.9,5.61,5.17,2.46,3.5,2.81,8.43.88,12.57-1.5,3.22-4.31,5.47-8.61,6.87-3.7,1.21-7.94,1.82-12.33,1.82ZM271.2,228.51c.21,5.65-3,11.59-6.11,17.35-5.15,9.54-7.88,15.66-2.28,20.2,1.55,1.26,3.83,1.86,6.06,2.32,6.93,1.42,14.2,1.16,19.95-.72,3.16-1.03,5.19-2.58,6.19-4.73,1.31-2.81,1.1-6.24-.52-8.53-1.22-1.74-3.02-3.08-4.61-4.17-.59-.4-3.73-3.55-3.89-5.53-.07-.82.28-1.44.97-2.68.81-1.46,2.04-3.67,2.18-5.59.05-.72-.4-1.41-1.1-1.67l-16.84-6.24Z"/>
        </g>
        <g>
          <path class="cls-4" d="M326.84,216.78h0c-2.52,1.86-3.18,5.33-1.54,8,3.75,6.1,6.52,16.53,7.21,17.14,1.15,1.02,4.51.37,5.89.38,3.04.01,6.3.14,9.1,1.45,2.08.98,3.63,2.65,4.22,4.9.7,2.65.49,5.87-.67,8.36-.87,1.87-2.55,3.16-4.24,4.28-3.82,2.53-8.22,4.27-12.61,5.47-6.51,1.77-17.95,3.5-21.32-4.38-5.13-12.01,4.48-16.11-10.72-29.03-10.19-8.66-21.52-10.34-31.9-15.22-2.08-.98-4.36-1.45-6.66-1.45h-21.81c-16.16,0-28.88-13.8-27.56-29.91l8.41-103.1c1.39-17,4.01-33.89,7.85-50.52l5.82-25.22c.8-3.45,3.87-5.89,7.41-5.89h24.32c3.41,0,6.02,3.04,5.51,6.43l-5.32,34.54c-1.22,7.96,4.93,15.13,12.98,15.13h29.79c8.16,0,14.49-7.11,13.54-15.22l-3.94-33.98c-.42-3.67,2.45-6.9,6.15-6.9h23.92c3.51,0,6.53,2.43,7.31,5.84l5.02,22.21c4.21,18.68,7.26,37.6,9.11,56.66,0,0,9.66,99.4,9.67,99.44.8,8.19-2.14,16.43-7.93,22.27-11.57,11.67-31.71,8.22-46.66,8.22-.12,0-.23.04-.32.11Z"/>
          <path class="cls-2" d="M324.16,270.31c-6.6,0-11.15-2.42-13.16-7.14-2.1-4.92-1.94-8.64-1.8-11.93.22-4.98.38-8.91-8.37-16.35-6.61-5.61-13.9-8.24-20.95-10.78-3.47-1.25-7.05-2.54-10.5-4.16-1.75-.82-3.75-1.26-5.8-1.26h-21.81c-8.27,0-16.22-3.49-21.82-9.56-5.6-6.08-8.43-14.29-7.75-22.53l8.41-103.1c1.39-17.03,4.05-34.12,7.9-50.81l5.82-25.22c1.02-4.4,4.88-7.46,9.39-7.46h24.32c2.22,0,4.32.96,5.76,2.65,1.45,1.68,2.08,3.91,1.75,6.11l-5.32,34.54c-.49,3.21.44,6.46,2.55,8.92,2.11,2.46,5.19,3.88,8.43,3.88h29.78c3.31,0,6.47-1.42,8.68-3.89,2.2-2.47,3.24-5.78,2.86-9.06l-3.94-33.98c-.27-2.33.47-4.67,2.03-6.41,1.56-1.75,3.79-2.75,6.13-2.75h23.92c4.47,0,8.29,3.05,9.29,7.42l5.02,22.22c4.22,18.68,7.29,37.83,9.15,56.91,0,0,9.67,99.4,9.67,99.44.85,8.73-2.33,17.66-8.51,23.89-10.11,10.2-25.82,9.59-39.68,9.05-2.77-.11-5.4-.21-7.9-.22-1.38,1.28-1.68,3.36-.66,5.02,2.54,4.14,4.59,9.99,5.94,13.86.37,1.05.77,2.22,1.02,2.82.7.14,2.21.01,2.9-.05.58-.05,1.07-.08,1.51-.09,3.29.02,6.77.16,9.95,1.64,2.71,1.27,4.6,3.48,5.32,6.22.83,3.16.53,6.89-.8,9.73-1.08,2.32-3.02,3.83-4.96,5.11-3.64,2.41-8.08,4.34-13.2,5.73-3.93,1.07-7.47,1.6-10.55,1.6ZM243.7,4.05c-2.61,0-4.85,1.78-5.44,4.33l-5.82,25.22c-3.81,16.49-6.43,33.39-7.81,50.23l-8.41,103.1c-.59,7.22,1.79,14.13,6.69,19.46,4.91,5.33,11.6,8.26,18.84,8.26h21.81c2.64,0,5.24.57,7.53,1.64,3.28,1.54,6.61,2.74,10.15,4.01,7.39,2.66,15.04,5.41,22.21,11.5,10.27,8.72,10.04,14.02,9.8,19.62-.14,3.13-.26,6.09,1.48,10.16,2.89,6.77,14.2,4.51,18.92,3.22,4.7-1.28,8.75-3.03,12.03-5.2,1.44-.95,2.86-2.03,3.52-3.44.93-1.99,1.14-4.73.55-6.99-.53-2-1.99-3.05-3.12-3.58-2.43-1.14-5.41-1.25-8.25-1.26-.28-.02-.69.03-1.15.07-2.03.17-4.55.38-6.07-.96-.62-.54-.88-1.25-2.02-4.52-1.3-3.71-3.26-9.31-5.57-13.08-2.21-3.6-1.33-8.19,2.06-10.69h0c.45-.33.97-.5,1.52-.5,2.73,0,5.57.11,8.58.23,13.02.51,27.78,1.09,36.64-7.85,5.34-5.38,8.08-13.1,7.35-20.65-.02-.18-9.67-99.44-9.67-99.44-1.84-18.91-4.9-37.89-9.07-56.41l-5.02-22.21c-.57-2.51-2.77-4.26-5.33-4.26h-23.92c-1.2,0-2.3.49-3.1,1.39-.8.9-1.17,2.05-1.03,3.25l3.94,33.97c.52,4.43-.89,8.89-3.85,12.23-2.97,3.34-7.23,5.25-11.7,5.25h-29.78c-4.43,0-8.62-1.93-11.51-5.29-2.88-3.36-4.15-7.8-3.48-12.18l5.32-34.54c.16-1.03-.14-2.07-.82-2.86-.67-.78-1.65-1.24-2.69-1.24h-24.32Z"/>
        </g>
        <rect class="cls-3" x="233.49" y="111.28" width="15.93" height="91.33" rx="7.97" ry="7.97" transform="translate(13.92 -19.57) rotate(4.78)"/>
        <rect class="cls-3" x="239.47" y="64.49" width="15.93" height="35.26" rx="7.97" ry="7.97" transform="translate(7.7 -20.33) rotate(4.78)"/>
        <path d="M338.44,173.46c-10.79,3.69-22.84.39-30.16-8.39-2.04-2.45-3.62-5.31-4.68-8.31-.65-1.83-3.59-1.04-2.93.81,4.19,11.86,15.35,20.16,27.99,20.47,3.59.09,7.2-.49,10.59-1.65,1.84-.63,1.05-3.57-.81-2.93h0Z"/>
        <path d="M297.64,157.88h10.49c.82,0,1.52-.7,1.52-1.52s-.7-1.52-1.52-1.52h-10.49c-.82,0-1.52.7-1.52,1.52s.7,1.52,1.52,1.52h0Z"/>
        <path d="M289.25,76.27c2.99-.65,5.98-1.3,8.97-1.95.43-.09.85-.19,1.28-.28.8-.17,1.27-1.11,1.06-1.87-.23-.83-1.06-1.24-1.87-1.06-2.99.65-5.98,1.3-8.97,1.95-.43.09-.85.19-1.28.28-.8.17-1.27,1.11-1.06,1.87.23.83,1.06,1.24,1.87,1.06h0Z"/>
        <path d="M354.1,71.59c2.99.66,5.98,1.32,8.97,1.98.43.09.85.19,1.28.28.8.18,1.64-.24,1.87-1.06.21-.76-.26-1.69-1.06-1.87-2.99-.66-5.98-1.32-8.97-1.98-.43-.09-.85-.19-1.28-.28-.8-.18-1.64.24-1.87,1.06-.21.76.26,1.69,1.06,1.87h0Z"/>
        <path class="cls-1" d="M316.14,96.98v38.05c0,7.2-5.85,13.05-13.04,13.05s-13.05-5.85-13.05-13.05v-38.05c0-7.2,5.85-13.05,13.05-13.05s13.04,5.85,13.04,13.05Z"/>
        <path class="cls-2" d="M303.1,81.5c-8.53,0-15.48,6.95-15.48,15.48v38.05c0,8.53,6.95,15.48,15.48,15.48s15.47-6.95,15.47-15.48v-38.05c0-8.53-6.94-15.48-15.47-15.48ZM316.14,135.03c0,7.2-5.85,13.05-13.04,13.05s-13.05-5.85-13.05-13.05v-38.05c0-7.2,5.85-13.05,13.05-13.05s13.04,5.85,13.04,13.05v38.05Z"/>
        <path class="cls-2" d="M308.35,144.32h0c-4.75,0-8.63-3.88-8.63-8.63v-30.35s0-10.75,0-10.75c0-4.75,3.88-8.63,8.63-8.63h0c4.75,0,8.63,3.88,8.63,8.63v41.1c0,4.75-3.88,8.63-8.63,8.63Z"/>
        <path class="cls-4" d="M316.91,154.72s-.02.06-.02.1l-31.55-6.45c1.39-6.65,6.69-11.82,13.45-12.9,6.72-1.08,13.44,2.52,16.59,8.47,1.75,3.29,2.29,7.13,1.52,10.78Z"/>
        <path class="cls-2" d="M319.85,155.52c-.39,1.89-3.23,1.13-2.95-.71,0-.03,0-.06.02-.1.76-3.65.23-7.49-1.52-10.78-3.15-5.95-9.87-9.55-16.59-8.47-6.76,1.08-12.06,6.24-13.45,12.9,0,.03-.02.06-.02.1-.39,1.92-3.32,1.1-2.93-.81.9-4.38,3.31-8.39,6.83-11.16,6.3-4.97,15.23-5.66,22.06-1.33,6.82,4.31,10.2,12.5,8.57,20.36Z"/>
        <rect class="cls-1" x="338.97" y="79.41" width="26.93" height="62.86" rx="13.47" ry="13.47"/>
        <path class="cls-2" d="M352.44,143.41c-8.06,0-14.61-6.56-14.61-14.61v-35.93c0-8.06,6.56-14.61,14.61-14.61s14.61,6.56,14.61,14.61v35.93c0,8.06-6.56,14.61-14.61,14.61ZM352.44,80.56c-6.79,0-12.32,5.53-12.32,12.32v35.93c0,6.79,5.53,12.32,12.32,12.32s12.32-5.53,12.32-12.32v-35.93c0-6.79-5.53-12.32-12.32-12.32Z"/>
        <path class="cls-2" d="M357.4,137.57h0c-4.48,0-8.15-3.67-8.15-8.15v-28.66s0-10.15,0-10.15c0-4.48,3.67-8.15,8.15-8.15h0c4.48,0,8.15,3.67,8.15,8.15v38.81c0,4.48-3.67,8.15-8.15,8.15Z"/>
        <path class="cls-4" d="M335.05,139.96c2.87-7.53,10.98-12.11,19.07-10.36,8.92,1.93,14.67,10.86,12.74,19.78l-31.82-9.43Z"/>
        <path class="cls-2" d="M336.44,140.34c2.21-5.63,7.81-9.54,13.86-9.67,6.03-.13,11.52,3.42,14.09,8.83,1.4,2.94,1.76,6.33,1.1,9.5-.37,1.8,2.39,2.57,2.77.76,1.44-6.97-1.24-14.14-6.93-18.43s-13.87-4.65-20.03-.93c-3.52,2.13-6.13,5.35-7.62,9.16-.67,1.72,2.1,2.47,2.77.76h0Z"/>
        <circle class="cls-1" cx="299.78" cy="101.16" r="5.07"/>
        <circle class="cls-1" cx="349.22" cy="95.08" r="3.85"/>
        <path class="cls-3" d="M291.4,147.46c.22-.48.46-.95.74-1.4.14-.23.3-.45.46-.67s-.02.02.08-.1c.08-.09.15-.19.23-.28.33-.38.69-.74,1.07-1.07.09-.08.18-.15.27-.23.21-.17-.04.03.09-.07.21-.15.43-.3.65-.44.4-.25.82-.48,1.25-.68.02,0,.44-.18.16-.07.11-.04.22-.09.33-.13.22-.08.45-.15.67-.22.48-.14.96-.25,1.46-.32-.33.05.14-.01.16-.01.09,0,.19-.02.28-.02.29-.02.57-.02.86-.02.8,0,1.56-.7,1.52-1.52s-.67-1.51-1.52-1.52c-4.83-.03-9.4,2.81-11.38,7.24-.33.75-.22,1.63.55,2.08.65.38,1.74.21,2.08-.55h0Z"/>
        <path class="cls-3" d="M343.21,140.62c.19-.43.4-.84.65-1.23.13-.2.26-.4.4-.59s-.02.02.07-.09c.07-.08.14-.17.21-.25.29-.34.61-.65.95-.95.08-.07.16-.14.24-.2.18-.15-.04.02.08-.06.19-.14.38-.27.57-.39.35-.22.72-.42,1.1-.6.02,0,.39-.16.14-.06.1-.04.19-.08.29-.11.2-.07.39-.14.6-.19.42-.12.85-.22,1.29-.28-.29.04.12,0,.14-.01.08,0,.17-.01.25-.02.25-.02.51-.02.76-.02.7,0,1.37-.62,1.34-1.34s-.59-1.34-1.34-1.34c-4.26-.03-8.3,2.48-10.05,6.39-.3.66-.19,1.44.48,1.84.57.34,1.54.18,1.84-.48h0Z"/>
      </g>
    </g>
  </g>
</svg>