<?xml version="1.0" encoding="UTF-8"?>
<svg id="Capa_2" data-name="Capa 2" xmlns="http://www.w3.org/2000/svg" viewBox="0 0 859.41 325.3">
  <defs>
    <style>
      .cls-1 {
        fill: #fff;
      }

      .cls-2 {
        fill: #1d1d1b;
      }

      .cls-3 {
        fill: #ccd379;
      }

      .cls-4 {
        fill: #a6b727;
      }
    </style>
  </defs>
  <g id="Capa_1-2" data-name="Capa 1">
    <g>
      <g>
        <path class="cls-2" d="M320.54,147.17c-2.08-1.98-12.85-2.23-13.8,2.18l-.14,54.91c-.18,2.92-2.11,4.53-4.88,4.88-8.22,1.05-30.67.83-39.17,0-1.79-.18-3.35.03-4.39-1.82l-.26-199.16,1.59-1.96,73.29-.47c55.01,4.05,81.94,73.97,47.92,115.47-2.52,3.08-11.14,9.47-11.17,12.83l21.86,72.38c-1.41,1.81-3.14,2.44-5.35,2.7-8.61,1.01-32.25.99-40.88,0-1.47-.17-2.79-.36-3.96-1.37l-20.67-60.57ZM303.32,95.13c26.86,25.81,66.04-17.16,36.99-41.87-27.25-23.17-62.68,17.18-36.99,41.87Z"/>
        <path class="cls-2" d="M674.73,22.85c13.7,13.6,18.9,31.76,19.88,50.71,2.22,42.84-1.77,87.56,0,130.6-.08,3.59-1.18,6.16-4.88,6.66-8.46,1.14-30.22.72-39.15,0-1.62-.13-3.26-.13-4.63-1.13l-1.54-59.28c-1.12-1.47-2.68-2.31-4.49-2.61-4.81-.79-18.79-.56-23.96-.09-2.74.25-5.97.79-6.6,4.06-1.11,17.29,1.41,36.21.02,53.29-.13,1.62-.13,3.26-1.13,4.63l-45.96.66-1.81-3.51c2.5-46.13-3.19-95.51,0-141.25,3.97-56.83,75.23-81.46,114.27-42.72ZM623.32,48.52c-39.3,5.35-25.72,67.9,13.78,53.73,30.56-10.97,19.04-58.2-13.78-53.73Z"/>
        <path class="cls-2" d="M782.03,147.13c5.74-1.24,7.86-10.76,2.58-14.12-2.44-1.55-16.52-1.3-21.11-1.97-81.72-11.98-65.68-129.92,15.92-127.79,31.18.82,62.49,25.99,64.34,58.23.36,6.33-.64,7.09-6.64,7.55-19.72,1.52-41.31-1.24-61.24.02-8.25,1.29-7.02,13.39-.72,14.8,4.48,1,10.74-.09,15.65.35,51.26,4.65,72.81,57.9,44.98,99.8-28.8,43.36-99.42,35.14-119.76-11.69-1.42-3.26-8.49-25.18-2.35-25.18h68.37Z"/>
        <path class="cls-2" d="M542.66,63.12c-6.38-77.45-121.52-81.51-132.97-4.16-1.49,10.06-1.09,19.94-.66,29.82l-.4,63.7c6.39,77.45,121.53,81.51,132.97,4.16,1.48-10.02,1.11-19.85.67-29.69l.39-63.83ZM475.26,105.84c-15.69,0-28.41-12.72-28.41-28.41s12.72-28.41,28.41-28.41,28.41,12.72,28.41,28.41-12.72,28.41-28.41,28.41Z"/>
      </g>
      <g>
        <polygon class="cls-4" points="495.01 286.35 492.95 282.8 485.91 287.69 487.61 290.56 495.01 286.35"/>
        <path class="cls-4" d="M534.42,285.57c-.71,0-1.32.25-1.81.74-.49.49-.74,1.1-.74,1.81s.25,1.32.74,1.81c.49.49,1.1.74,1.81.74s1.32-.25,1.81-.74.74-1.1.74-1.81-.25-1.32-.74-1.81c-.49-.49-1.1-.74-1.81-.74Z"/>
        <polygon class="cls-4" points="683.19 286.35 681.14 282.8 674.09 287.69 675.79 290.56 683.19 286.35"/>
        <g>
          <path class="cls-4" d="M267.26,287.65l-9.36,24.3h4.23l1.95-5.08h10.83l1.95,5.08h4.23l-9.36-24.3h-4.47ZM273.49,303.1h-7.98l4.01-10.49,3.98,10.49Z"/>
          <path class="cls-4" d="M300.27,295.61c-.86-.87-1.88-1.55-3.05-2.04-1.17-.49-2.45-.73-3.81-.73-1.6,0-3.01.29-4.21.85-.76.36-1.43.83-2.01,1.41v-9.17h-3.85v26.04h3.85v-1.94c1.48,1.52,3.57,2.28,6.22,2.28,1.36,0,2.64-.25,3.81-.73,1.17-.48,2.19-1.17,3.05-2.04.85-.86,1.53-1.91,2-3.1.47-1.19.71-2.49.71-3.87s-.24-2.67-.72-3.85c-.47-1.18-1.15-2.22-2-3.09ZM299.03,302.55c0,.86-.15,1.67-.45,2.4-.3.74-.72,1.38-1.23,1.91-.52.53-1.14.95-1.86,1.25-1.44.6-3.36.59-4.78,0-.72-.3-1.35-.71-1.87-1.23s-.92-1.15-1.21-1.88c-.29-.74-.44-1.56-.44-2.45s.15-1.7.43-2.43c.29-.72.69-1.36,1.22-1.89.52-.53,1.14-.94,1.86-1.22.73-.29,1.54-.43,2.43-.43s1.65.15,2.36.45c.71.3,1.34.72,1.86,1.25.52.53.94,1.17,1.23,1.89.3.73.45,1.53.45,2.38Z"/>
          <path class="cls-4" d="M320.57,295.09c-.57-.58-1.24-1.05-2.01-1.41-1.2-.56-2.61-.85-4.21-.85-1.36,0-2.64.25-3.81.73-1.17.49-2.2,1.17-3.05,2.04s-1.53,1.9-2,3.09c-.47,1.18-.71,2.47-.71,3.85s.24,2.68.71,3.87c.48,1.19,1.15,2.24,2,3.1.86.87,1.88,1.55,3.05,2.04,1.17.49,2.45.73,3.81.73,2.65,0,4.73-.77,6.22-2.28v1.94h3.85v-18.8h-3.85v1.94ZM312.26,308.11c-.71-.3-1.34-.72-1.86-1.25s-.93-1.17-1.23-1.91c-.3-.74-.45-1.55-.45-2.41s.15-1.66.45-2.38c.3-.72.71-1.36,1.23-1.89.52-.53,1.14-.95,1.85-1.25.71-.3,1.51-.45,2.37-.45s1.7.15,2.43.43c.72.28,1.35.7,1.86,1.22.52.53.93,1.17,1.22,1.89.29.73.43,1.54.43,2.43s-.15,1.71-.44,2.44c-.29.73-.69,1.37-1.21,1.88-.52.52-1.15.93-1.87,1.23-1.43.59-3.35.6-4.78,0Z"/>
          <path class="cls-4" d="M335.01,293.93c-.83.48-1.56,1.12-2.18,1.92v-2.7h-3.85v18.8h3.85v-8.99c0-1,.2-1.9.59-2.66.4-.77.91-1.43,1.53-1.95.62-.53,1.32-.93,2.09-1.2.77-.27,1.51-.41,2.22-.41h.5v-3.95h-.5c-1.52,0-2.95.38-4.25,1.13Z"/>
          <path class="cls-4" d="M348.61,293.93c-.83.48-1.56,1.12-2.18,1.92v-2.7h-3.85v18.8h3.85v-8.99c0-1.01.2-1.9.59-2.66.4-.77.91-1.43,1.53-1.95.62-.53,1.32-.93,2.09-1.2.77-.27,1.51-.41,2.22-.41h.5v-3.95h-.5c-1.52,0-2.95.38-4.25,1.13Z"/>
          <path class="cls-4" d="M371.47,295.59c-.88-.88-1.92-1.57-3.1-2.06-2.38-.98-5.34-.97-7.68,0-1.18.49-2.22,1.18-3.09,2.06-.86.88-1.55,1.92-2.05,3.09-.5,1.18-.75,2.48-.75,3.86s.25,2.65.75,3.83c.5,1.18,1.19,2.21,2.05,3.08s1.9,1.56,3.08,2.06c1.18.5,2.48.75,3.86.75s2.65-.25,3.83-.75c1.18-.5,2.22-1.19,3.09-2.05.88-.87,1.58-1.9,2.08-3.08.5-1.18.75-2.47.75-3.83s-.25-2.68-.75-3.86c-.5-1.18-1.2-2.22-2.07-3.1ZM370.27,302.55c0,.8-.13,1.57-.39,2.3-.26.72-.64,1.36-1.13,1.9-.49.54-1.1.97-1.81,1.29-1.39.63-3.41.63-4.83,0-.71-.32-1.32-.75-1.8-1.29-.49-.54-.87-1.18-1.14-1.91-.27-.73-.4-1.5-.4-2.3s.14-1.6.4-2.31c.27-.72.65-1.36,1.14-1.91.48-.55,1.09-.99,1.8-1.3.71-.32,1.53-.48,2.42-.48s1.71.16,2.4.48c.7.32,1.31.76,1.8,1.31.5.55.88,1.19,1.14,1.9.26.72.39,1.5.39,2.32Z"/>
          <path class="cls-4" d="M383.02,287.65h-3.85v5.5h-3.44v3.6h3.44v9.66c0,2,.46,3.5,1.35,4.45.91.96,2.37,1.44,4.36,1.44.36,0,.74-.02,1.14-.05.38-.03.8-.08,1.19-.12.06,0,.18-.01.35-.04.08-.02.14-.03.17-.03h.5v-3.6h-.5s-.14.01-.34.04c-.11.02-.18.03-.24.03-.39.05-.75.09-1.09.12-1.37.14-2.27-.02-2.61-.43-.2-.24-.44-.77-.44-1.94v-9.52h5.22v-3.6h-5.22v-5.5Z"/>
          <path class="cls-4" d="M408.2,297.61c-.5-.99-1.17-1.86-2-2.57-.82-.71-1.8-1.27-2.91-1.66-2.28-.8-5.2-.8-7.47.15-1.17.49-2.2,1.18-3.05,2.06-.85.88-1.53,1.92-2.02,3.1-.49,1.18-.73,2.47-.73,3.86s.25,2.68.73,3.86c.48,1.18,1.17,2.22,2.04,3.08.87.87,1.9,1.55,3.06,2.04,1.17.49,2.45.73,3.81.73,2.13,0,3.99-.5,5.55-1.49,1.58-1,2.67-2.39,3.27-4.14l.22-.66h-4.31l-.14.28c-.35.72-.9,1.26-1.67,1.65-.79.4-1.72.61-2.75.61-.8,0-1.54-.12-2.21-.37-.67-.24-1.25-.59-1.75-1.05-.5-.46-.91-1.01-1.23-1.63-.24-.47-.42-.99-.53-1.56h14.95l.08-1.41c.01-.24.02-.4.02-.48,0-.34-.02-.71-.07-1.08-.1-1.22-.4-2.34-.9-3.33ZM399.67,296.54c1.54,0,2.8.41,3.75,1.2.82.7,1.33,1.6,1.53,2.74h-10.67c.13-.46.32-.88.55-1.27.33-.55.74-1.04,1.22-1.44.47-.4,1.02-.71,1.63-.92.62-.21,1.29-.32,1.99-.32Z"/>
          <path class="cls-4" d="M424.09,302.24c-.69-.38-1.47-.67-2.32-.87-.81-.19-1.61-.36-2.37-.52-.55-.11-1.07-.24-1.57-.38-.47-.13-.88-.29-1.22-.49-.32-.18-.57-.4-.75-.66-.16-.22-.24-.53-.24-.91,0-.63.24-1.09.76-1.45.56-.39,1.38-.59,2.43-.59s1.92.21,2.52.62c.56.39.85.89.88,1.55l.03.47h3.94l-.02-.52c-.08-1.77-.79-3.18-2.11-4.2-1.29-.99-3.03-1.49-5.17-1.49s-3.92.51-5.19,1.52c-1.32,1.03-1.98,2.45-1.98,4.2,0,1.08.22,1.99.65,2.69.42.69.98,1.25,1.66,1.68.66.41,1.39.72,2.19.93.76.2,1.54.37,2.31.51.6.11,1.16.24,1.7.36.5.12.95.27,1.33.46.36.18.63.4.84.66.19.24.28.55.28.95,0,.47,0,1.9-3.36,1.9-1.23,0-2.2-.21-2.9-.61-.65-.38-1.03-.92-1.17-1.66l-.07-.41h-3.83v.5c0,.87.2,1.67.58,2.39.38.71.93,1.33,1.63,1.82.68.48,1.51.87,2.47,1.13.95.27,2.01.4,3.16.4,2.28,0,4.1-.5,5.4-1.49,1.34-1.02,2.02-2.45,2.02-4.26,0-1.07-.24-1.96-.71-2.65-.46-.66-1.06-1.2-1.77-1.6Z"/>
          <polygon class="cls-4" points="429.34 315.74 432.65 315.74 434.71 307.59 430.29 307.59 429.34 315.74"/>
          <path class="cls-4" d="M463.9,289.97c-.84-.74-1.85-1.31-3.02-1.71-1.16-.4-2.47-.6-3.88-.6h-9.16v24.3h4.02v-7.13h5.14c1.42,0,2.73-.21,3.89-.62,1.17-.41,2.19-1.01,3.02-1.77.84-.76,1.49-1.69,1.95-2.76.45-1.07.68-2.25.68-3.52s-.23-2.44-.69-3.49c-.46-1.05-1.11-1.95-1.95-2.7ZM451.86,291.43h4.82c1.77,0,3.19.45,4.22,1.32,1.02.87,1.51,2.01,1.51,3.47s-.49,2.63-1.51,3.5c-1.03.88-2.45,1.32-4.22,1.32h-4.82v-9.62Z"/>
          <rect class="cls-4" x="469.72" y="285.91" width="3.85" height="26.04"/>
          <path class="cls-4" d="M492.54,295.09c-.57-.58-1.24-1.05-2.01-1.41-1.2-.56-2.61-.85-4.21-.85-1.36,0-2.64.25-3.81.73-1.17.49-2.19,1.17-3.05,2.04-.86.86-1.53,1.9-2,3.09-.47,1.18-.71,2.47-.71,3.85s.24,2.68.71,3.87c.48,1.2,1.15,2.24,2,3.1.86.87,1.88,1.56,3.05,2.04,1.17.49,2.45.73,3.81.73,2.65,0,4.73-.77,6.22-2.28v1.94h3.85v-18.8h-3.85v1.94ZM484.23,308.11c-.71-.3-1.34-.72-1.85-1.25-.52-.53-.93-1.17-1.23-1.91-.3-.73-.45-1.54-.45-2.4s.15-1.66.45-2.38c.3-.72.71-1.36,1.23-1.89.52-.53,1.14-.95,1.85-1.25.71-.3,1.51-.45,2.37-.45s1.7.15,2.43.43c.72.28,1.35.7,1.86,1.22.52.53.93,1.17,1.22,1.89.29.73.43,1.54.43,2.43s-.15,1.71-.44,2.45c-.29.73-.69,1.37-1.21,1.88-.52.52-1.15.93-1.87,1.23-1.42.59-3.34.6-4.78,0Z"/>
          <path class="cls-4" d="M512.68,302.24c-.69-.38-1.47-.67-2.32-.87-.81-.19-1.61-.36-2.37-.52-.55-.11-1.07-.24-1.57-.38-.47-.13-.88-.29-1.22-.49-.32-.18-.57-.4-.75-.66-.16-.22-.24-.53-.24-.91,0-.63.24-1.09.76-1.45.56-.39,1.38-.59,2.43-.59s1.92.21,2.52.62c.56.39.85.89.88,1.55l.03.47h3.94l-.02-.52c-.08-1.77-.79-3.18-2.11-4.2-1.29-.99-3.03-1.49-5.17-1.49s-3.92.51-5.19,1.52c-1.32,1.03-1.98,2.45-1.98,4.2,0,1.08.22,1.99.65,2.69.42.69.98,1.25,1.66,1.68.66.41,1.39.72,2.19.93.76.2,1.54.37,2.31.51.6.11,1.16.24,1.7.36.5.12.95.27,1.33.46.36.18.63.4.84.66.19.24.28.55.28.95,0,.47,0,1.9-3.36,1.9-1.23,0-2.2-.21-2.9-.61-.65-.38-1.03-.92-1.17-1.66l-.07-.41h-3.83v.5c0,.87.2,1.67.58,2.39.38.71.93,1.33,1.63,1.82.68.48,1.51.87,2.47,1.13.95.27,2.01.4,3.16.4,2.28,0,4.1-.5,5.4-1.49,1.34-1.02,2.02-2.45,2.02-4.26,0-1.07-.24-1.96-.71-2.65-.46-.66-1.06-1.2-1.77-1.6Z"/>
          <path class="cls-4" d="M524.1,287.65h-3.85v5.5h-3.44v3.6h3.44v9.66c0,2,.46,3.5,1.35,4.45.91.96,2.37,1.44,4.36,1.44.36,0,.74-.02,1.14-.05.38-.03.8-.08,1.19-.12.06,0,.18-.01.35-.04.08-.02.14-.03.17-.03h.5v-3.6h-.5s-.14.01-.34.04c-.11.02-.18.03-.24.03-.39.05-.76.09-1.09.12-1.37.14-2.26-.02-2.61-.43-.2-.24-.44-.77-.44-1.94v-9.52h5.22v-3.6h-5.22v-5.5Z"/>
          <rect class="cls-4" x="532.5" y="293.15" width="3.85" height="18.8"/>
          <path class="cls-4" d="M545.06,298.32c.48-.55,1.09-.99,1.8-1.3.71-.32,1.53-.48,2.42-.48,1.23,0,2.29.31,3.15.93.86.62,1.48,1.42,1.84,2.36l.12.32h4.11l-.15-.62c-.25-.98-.65-1.89-1.2-2.71-.55-.82-1.23-1.54-2.03-2.14-.79-.6-1.7-1.07-2.7-1.4-2.25-.74-4.89-.63-7.01.24-1.18.49-2.22,1.18-3.09,2.06-.86.88-1.55,1.92-2.05,3.09-.5,1.18-.75,2.48-.75,3.86s.25,2.65.75,3.83c.5,1.18,1.19,2.21,2.05,3.08s1.9,1.56,3.08,2.06c1.18.5,2.48.75,3.86.75,1.09,0,2.15-.17,3.15-.49,1-.33,1.9-.79,2.7-1.38.79-.59,1.48-1.3,2.03-2.12.55-.82.95-1.73,1.2-2.71l.15-.62h-4.11l-.12.32c-.36.96-.96,1.72-1.84,2.34-.86.61-1.92.92-3.16.92-.9,0-1.72-.16-2.42-.48-.71-.32-1.32-.75-1.8-1.29-.49-.54-.87-1.18-1.14-1.91-.27-.73-.4-1.5-.4-2.3s.14-1.6.4-2.31c.27-.72.65-1.36,1.14-1.91Z"/>
          <path class="cls-4" d="M576.73,295.59c-.88-.88-1.92-1.57-3.1-2.06-2.38-.98-5.34-.97-7.68,0-1.18.49-2.22,1.18-3.09,2.06-.86.88-1.55,1.92-2.05,3.09-.5,1.18-.75,2.48-.75,3.86s.25,2.65.75,3.83c.5,1.18,1.19,2.21,2.05,3.08s1.9,1.56,3.08,2.06c1.18.5,2.48.75,3.86.75s2.65-.25,3.83-.75c1.18-.5,2.22-1.19,3.1-2.05.88-.87,1.58-1.9,2.08-3.08.5-1.18.75-2.47.75-3.83s-.25-2.68-.75-3.86c-.5-1.18-1.2-2.22-2.07-3.1ZM575.53,302.55c0,.8-.13,1.57-.39,2.31-.25.72-.63,1.36-1.13,1.9-.5.54-1.11.97-1.81,1.29-1.39.63-3.41.63-4.83,0-.71-.32-1.32-.75-1.8-1.29-.49-.54-.87-1.18-1.14-1.91-.27-.73-.4-1.5-.4-2.3s.14-1.6.4-2.31c.27-.72.65-1.36,1.14-1.91.48-.55,1.09-.99,1.8-1.3.71-.32,1.53-.48,2.42-.48s1.71.16,2.4.48c.7.32,1.3.76,1.8,1.31.5.55.88,1.19,1.14,1.9.26.72.39,1.5.39,2.32Z"/>
          <path class="cls-4" d="M594.46,302.24c-.69-.38-1.47-.67-2.32-.87-.81-.19-1.61-.36-2.37-.52-.55-.11-1.07-.24-1.57-.38-.47-.13-.88-.29-1.22-.49-.32-.18-.57-.4-.75-.66-.16-.23-.24-.53-.24-.91,0-.63.24-1.09.76-1.45.56-.39,1.38-.59,2.43-.59s1.92.21,2.52.62c.56.39.85.89.88,1.55l.03.47h3.94l-.02-.52c-.08-1.77-.78-3.18-2.11-4.2-1.29-.99-3.03-1.49-5.17-1.49s-3.92.51-5.19,1.52c-1.32,1.03-1.98,2.45-1.98,4.2,0,1.09.22,1.99.65,2.69.42.69.98,1.25,1.66,1.68.66.41,1.39.72,2.19.93.76.2,1.54.37,2.31.51.6.11,1.16.24,1.7.36.5.12.95.27,1.33.46.36.18.63.4.84.66.19.24.28.55.28.95,0,.47,0,1.9-3.36,1.9-1.23,0-2.2-.21-2.9-.61-.65-.38-1.03-.92-1.17-1.66l-.07-.41h-3.83v.5c0,.87.2,1.67.58,2.39.38.72.93,1.33,1.63,1.82.68.48,1.51.87,2.47,1.13.95.27,2.01.4,3.16.4,2.28,0,4.1-.5,5.4-1.49,1.34-1.02,2.02-2.45,2.02-4.26,0-1.07-.24-1.96-.71-2.65-.46-.66-1.05-1.2-1.77-1.6Z"/>
          <polygon class="cls-4" points="615.66 306.1 610.84 293.15 606.68 293.15 613.62 311.31 610.43 319.36 614.45 319.36 624.94 293.15 620.77 293.15 615.66 306.1"/>
          <polygon class="cls-4" points="648.73 302.72 640.96 287.65 636.4 287.65 636.4 311.95 640.42 311.95 640.42 295.07 646.72 307.26 650.73 307.26 657.03 295.07 657.03 311.95 661.05 311.95 661.05 287.65 656.49 287.65 648.73 302.72"/>
          <path class="cls-4" d="M680.72,295.09c-.57-.58-1.24-1.05-2.01-1.41-1.2-.56-2.61-.85-4.21-.85-1.36,0-2.64.25-3.81.73-1.17.49-2.2,1.17-3.05,2.04-.86.87-1.53,1.91-2,3.09-.47,1.18-.71,2.48-.71,3.85s.24,2.68.71,3.87c.48,1.19,1.15,2.24,2,3.1.86.87,1.88,1.55,3.05,2.04,1.17.49,2.45.73,3.81.73,2.65,0,4.73-.77,6.22-2.28v1.94h3.85v-18.8h-3.85v1.94ZM672.41,308.11c-.71-.3-1.34-.72-1.85-1.25-.52-.53-.93-1.17-1.23-1.91-.3-.74-.45-1.54-.45-2.4s.15-1.66.45-2.38c.3-.72.71-1.36,1.23-1.89.52-.53,1.14-.95,1.85-1.25.71-.3,1.51-.45,2.37-.45s1.7.15,2.43.43c.72.28,1.34.7,1.86,1.22.52.53.93,1.17,1.22,1.89.29.73.43,1.54.43,2.43s-.15,1.71-.44,2.45c-.29.73-.69,1.36-1.21,1.88-.52.52-1.15.93-1.87,1.23-1.43.59-3.34.6-4.78,0Z"/>
          <path class="cls-4" d="M700.87,302.24c-.69-.38-1.47-.67-2.32-.87-.81-.19-1.61-.36-2.37-.52-.55-.11-1.07-.24-1.57-.38-.47-.13-.88-.29-1.22-.49-.32-.18-.57-.4-.75-.66-.16-.23-.24-.53-.24-.91,0-.63.24-1.09.76-1.45.56-.39,1.38-.59,2.43-.59s1.92.21,2.52.62c.56.39.85.89.88,1.55l.03.47h3.94l-.02-.52c-.08-1.77-.78-3.18-2.11-4.2-1.29-.99-3.03-1.49-5.17-1.49s-3.92.51-5.19,1.52c-1.32,1.03-1.98,2.45-1.98,4.2,0,1.09.22,1.99.65,2.69.42.69.98,1.25,1.66,1.68.66.41,1.39.72,2.19.93.76.2,1.54.37,2.31.51.6.11,1.16.24,1.7.36.5.12.95.27,1.33.46.36.18.63.4.84.66.19.24.28.55.28.95,0,.47,0,1.9-3.36,1.9-1.23,0-2.2-.21-2.9-.61-.65-.38-1.03-.92-1.17-1.66l-.07-.41h-3.83v.5c0,.87.2,1.67.58,2.39.38.72.93,1.33,1.63,1.82.68.48,1.51.87,2.47,1.13.95.27,2.01.4,3.16.4,2.28,0,4.1-.5,5.4-1.49,1.34-1.02,2.02-2.45,2.02-4.26,0-1.07-.24-1.96-.71-2.65-.46-.66-1.05-1.2-1.77-1.6Z"/>
          <path class="cls-4" d="M708.87,306.96c-.73,0-1.37.26-1.89.77-.53.51-.79,1.15-.79,1.89s.27,1.38.79,1.9c.53.52,1.16.79,1.9.79s1.37-.27,1.89-.79c.51-.52.77-1.16.77-1.89s-.26-1.37-.77-1.88c-.51-.51-1.15-.77-1.88-.77Z"/>
          <path class="cls-4" d="M717.39,306.96c-.73,0-1.37.26-1.89.77-.53.51-.79,1.15-.79,1.89s.27,1.38.79,1.9c.53.52,1.16.79,1.9.79s1.37-.27,1.89-.79c.51-.52.77-1.16.77-1.89s-.26-1.37-.77-1.88c-.51-.51-1.15-.77-1.88-.77Z"/>
          <path class="cls-4" d="M727.79,307.73c-.51-.51-1.15-.77-1.88-.77s-1.37.26-1.89.77c-.53.51-.79,1.15-.79,1.89s.27,1.38.79,1.9c.53.52,1.16.79,1.9.79s1.37-.27,1.89-.79c.51-.52.77-1.16.77-1.89s-.26-1.37-.77-1.88Z"/>
        </g>
      </g>
      <g>
        <path class="cls-2" d="M257.9,250.02c0-2.79.5-5.4,1.51-7.84,1.01-2.44,2.39-4.56,4.15-6.36,1.76-1.8,3.86-3.22,6.3-4.27,2.44-1.05,5.09-1.57,7.96-1.57,2.56,0,4.93.37,7.12,1.1,2.19.74,4.12,1.79,5.81,3.17,1.68,1.37,3.07,3.04,4.15,5,1.08,1.96,1.8,4.13,2.15,6.53h-9.7c-.66-2.17-1.87-3.88-3.63-5.14-1.76-1.26-3.75-1.89-5.95-1.89-1.47,0-2.85.29-4.12.87-1.28.58-2.38,1.37-3.31,2.38-.93,1.01-1.66,2.2-2.21,3.57-.54,1.37-.81,2.86-.81,4.44s.27,3.07.81,4.44c.54,1.37,1.28,2.57,2.21,3.57.93,1.01,2.03,1.8,3.31,2.38,1.28.58,2.65.87,4.12.87,2.21,0,4.19-.63,5.95-1.89,1.76-1.26,2.97-2.97,3.63-5.14h9.7c-.35,2.4-1.06,4.58-2.15,6.53-1.08,1.96-2.47,3.62-4.15,5-1.68,1.37-3.62,2.43-5.81,3.17-2.19.74-4.56,1.1-7.12,1.1-2.87,0-5.52-.52-7.96-1.57-2.44-1.05-4.54-2.47-6.3-4.27-1.76-1.8-3.15-3.92-4.15-6.36-1.01-2.44-1.51-5.05-1.51-7.84Z"/>
        <path class="cls-2" d="M300.82,250.02c0-2.87.51-5.52,1.54-7.96,1.03-2.44,2.44-4.55,4.24-6.33,1.8-1.78,3.94-3.18,6.42-4.21,2.48-1.03,5.15-1.54,8.01-1.54s5.59.5,8.04,1.51c2.46,1.01,4.59,2.41,6.39,4.21,1.8,1.8,3.21,3.92,4.24,6.36,1.03,2.44,1.54,5.09,1.54,7.96s-.51,5.52-1.54,7.96c-1.03,2.44-2.44,4.56-4.24,6.36-1.8,1.8-3.93,3.2-6.39,4.21-2.46,1.01-5.14,1.51-8.04,1.51s-5.54-.5-8.01-1.51c-2.48-1.01-4.62-2.41-6.42-4.21-1.8-1.8-3.21-3.92-4.24-6.36-1.03-2.44-1.54-5.09-1.54-7.96ZM310.24,249.97c0,1.59.27,3.07.81,4.44.54,1.37,1.3,2.56,2.27,3.54.97.99,2.11,1.76,3.43,2.32,1.32.56,2.75.84,4.3.84s2.98-.28,4.3-.84c1.32-.56,2.46-1.34,3.43-2.32.97-.99,1.72-2.17,2.27-3.54.54-1.37.81-2.86.81-4.44s-.27-3.05-.81-4.39c-.54-1.34-1.3-2.5-2.27-3.48-.97-.99-2.11-1.76-3.43-2.32-1.32-.56-2.75-.84-4.3-.84s-2.98.28-4.3.84c-1.32.56-2.46,1.34-3.43,2.32-.97.99-1.72,2.15-2.27,3.48-.54,1.34-.81,2.8-.81,4.39Z"/>
        <path class="cls-2" d="M347.35,230.57h12.72l8.89,21.32,8.89-21.32h12.72v38.92h-9v-27.76l-8.36,20.33h-8.54l-8.31-20.33v27.76h-9v-38.92Z"/>
        <path class="cls-2" d="M398.7,230.57h28.58v8.13h-19.4v7.9h15.97v6.97h-15.97v7.78h19.4v8.13h-28.58v-38.92Z"/>
        <path class="cls-2" d="M450.74,230.57c5.07,0,8.96,1.08,11.67,3.25,2.71,2.17,4.07,5.25,4.07,9.24,0,2.79-.67,5.13-2,7.03-1.34,1.9-3.26,3.33-5.78,4.3l8.65,15.1h-10.34l-7.55-13.77h-6.51v13.77h-9.18v-38.92h16.96ZM450.68,248.69c2.13,0,3.76-.44,4.88-1.31,1.12-.87,1.68-2.08,1.68-3.63s-.56-2.82-1.68-3.69c-1.12-.87-2.75-1.31-4.88-1.31h-7.73v9.93h7.73Z"/>
        <path class="cls-2" d="M471.36,250.02c0-2.79.5-5.4,1.51-7.84,1.01-2.44,2.39-4.56,4.15-6.36,1.76-1.8,3.86-3.22,6.3-4.27,2.44-1.05,5.09-1.57,7.96-1.57,2.56,0,4.93.37,7.11,1.1,2.19.74,4.12,1.79,5.81,3.17,1.68,1.37,3.07,3.04,4.15,5,1.08,1.96,1.8,4.13,2.15,6.53h-9.7c-.66-2.17-1.87-3.88-3.63-5.14-1.76-1.26-3.75-1.89-5.95-1.89-1.47,0-2.85.29-4.12.87-1.28.58-2.38,1.37-3.31,2.38-.93,1.01-1.67,2.2-2.21,3.57-.54,1.37-.81,2.86-.81,4.44s.27,3.07.81,4.44c.54,1.37,1.28,2.57,2.21,3.57.93,1.01,2.03,1.8,3.31,2.38,1.28.58,2.65.87,4.12.87,2.21,0,4.19-.63,5.95-1.89,1.76-1.26,2.97-2.97,3.63-5.14h9.7c-.35,2.4-1.06,4.58-2.15,6.53-1.08,1.96-2.47,3.62-4.15,5-1.68,1.37-3.62,2.43-5.81,3.17s-4.56,1.1-7.11,1.1c-2.87,0-5.52-.52-7.96-1.57-2.44-1.05-4.54-2.47-6.3-4.27-1.76-1.8-3.15-3.92-4.15-6.36s-1.51-5.05-1.51-7.84Z"/>
        <path class="cls-2" d="M516.31,230.57h9.18v38.92h-9.18v-38.92Z"/>
        <path class="cls-2" d="M544.31,230.57h10.98l14.29,38.92h-9.12l-2.61-7.2h-16.09l-2.61,7.2h-9.12l14.29-38.92ZM555.46,255.37l-5.63-15.62-5.69,15.62h11.33Z"/>
        <path class="cls-2" d="M574.11,230.57h9.18v30.78h16.44v8.13h-25.62v-38.92Z"/>
        <path class="cls-2" d="M605.18,230.57h9.18v38.92h-9.18v-38.92Z"/>
        <path class="cls-2" d="M631.96,261.7h18.53v7.78h-29.62v-7.78l18.59-23.35h-18.59v-7.78h29.62v7.78l-18.53,23.35Z"/>
        <path class="cls-2" d="M667.68,230.57h10.98l14.29,38.92h-9.12l-2.61-7.2h-16.09l-2.61,7.2h-9.12l14.29-38.92ZM678.83,255.37l-5.63-15.62-5.69,15.62h11.33Z"/>
        <path class="cls-2" d="M697.47,269.48v-38.92h16.09c2.87,0,5.51.48,7.93,1.45,2.42.97,4.5,2.31,6.24,4.04,1.74,1.72,3.1,3.78,4.07,6.16.97,2.38,1.45,4.99,1.45,7.81s-.48,5.44-1.45,7.84c-.97,2.4-2.32,4.45-4.07,6.16-1.74,1.7-3.82,3.04-6.24,4.01-2.42.97-5.06,1.45-7.93,1.45h-16.09ZM706.65,261.17h6.91c1.51,0,2.9-.27,4.18-.81,1.28-.54,2.36-1.31,3.25-2.29.89-.99,1.59-2.17,2.09-3.54.5-1.37.75-2.89.75-4.56s-.25-3.13-.75-4.5c-.5-1.37-1.2-2.55-2.09-3.51-.89-.97-1.98-1.72-3.25-2.27-1.28-.54-2.67-.81-4.18-.81h-6.91v22.3Z"/>
        <path class="cls-2" d="M737.32,250.02c0-2.87.51-5.52,1.54-7.96,1.03-2.44,2.44-4.55,4.24-6.33,1.8-1.78,3.94-3.18,6.42-4.21,2.48-1.03,5.15-1.54,8.02-1.54s5.58.5,8.04,1.51c2.46,1.01,4.59,2.41,6.39,4.21,1.8,1.8,3.21,3.92,4.24,6.36,1.03,2.44,1.54,5.09,1.54,7.96s-.51,5.52-1.54,7.96c-1.03,2.44-2.44,4.56-4.24,6.36-1.8,1.8-3.93,3.2-6.39,4.21-2.46,1.01-5.14,1.51-8.04,1.51s-5.54-.5-8.02-1.51c-2.48-1.01-4.62-2.41-6.42-4.21-1.8-1.8-3.21-3.92-4.24-6.36-1.03-2.44-1.54-5.09-1.54-7.96ZM746.73,249.97c0,1.59.27,3.07.81,4.44.54,1.37,1.3,2.56,2.26,3.54.97.99,2.11,1.76,3.43,2.32,1.32.56,2.75.84,4.3.84s2.98-.28,4.3-.84c1.32-.56,2.46-1.34,3.43-2.32s1.72-2.17,2.27-3.54c.54-1.37.81-2.86.81-4.44s-.27-3.05-.81-4.39c-.54-1.34-1.3-2.5-2.27-3.48-.97-.99-2.11-1.76-3.43-2.32-1.32-.56-2.75-.84-4.3-.84s-2.98.28-4.3.84c-1.32.56-2.46,1.34-3.43,2.32-.97.99-1.72,2.15-2.26,3.48-.54,1.34-.81,2.8-.81,4.39Z"/>
        <path class="cls-2" d="M800.8,230.57c5.07,0,8.96,1.08,11.67,3.25,2.71,2.17,4.07,5.25,4.07,9.24,0,2.79-.67,5.13-2,7.03-1.34,1.9-3.26,3.33-5.78,4.3l8.65,15.1h-10.34l-7.55-13.77h-6.5v13.77h-9.18v-38.92h16.96ZM800.75,248.69c2.13,0,3.76-.44,4.88-1.31,1.12-.87,1.68-2.08,1.68-3.63s-.56-2.82-1.68-3.69c-1.12-.87-2.75-1.31-4.88-1.31h-7.73v9.93h7.73Z"/>
        <path class="cls-2" d="M834.14,230.57h10.98l14.29,38.92h-9.12l-2.61-7.2h-16.09l-2.61,7.2h-9.12l14.29-38.92ZM845.29,255.37l-5.63-15.62-5.69,15.62h11.33Z"/>
      </g>
      <g>
        <g>
          <path class="cls-4" d="M91.23,277.12c1.83.68,3.02,2.48,2.88,4.43-.31,4.19-3.81,8.71-3.75,9.48.09,1.11,2.81,4.26,3.58,4.79,2.28,1.55,4.5,3.3,6.11,5.57,2.53,3.6,2.66,8.64.83,12.56-1.71,3.67-5.09,5.69-8.8,6.9-7.82,2.55-16.97,2.57-24.98.92-2.82-.58-5.96-1.39-8.25-3.25-15.02-12.18,11.86-32.85,8.87-48.48-.15-.77.63-1.39,1.36-1.12l22.15,8.2Z"/>
          <path class="cls-2" d="M78.15,325.3c-3.82,0-7.72-.39-11.54-1.17-3.25-.67-6.63-1.58-9.28-3.74-10.24-8.31-4-19.87,1.51-30.07,3.74-6.92,7.61-14.08,6.51-19.82-.23-1.2.21-2.44,1.15-3.23.94-.8,2.25-1.03,3.42-.6l22.15,8.2c2.84,1.05,4.66,3.87,4.44,6.86-.25,3.34-2.09,6.66-3.19,8.64-.12.21-.25.44-.36.65.59.92,1.89,2.45,2.37,2.83,2.22,1.51,4.78,3.45,6.68,6.15,2.93,4.16,3.34,10.04,1.05,14.97-1.78,3.83-5.13,6.51-10.24,8.17-4.4,1.44-9.45,2.16-14.67,2.16ZM70.35,271.96c.25,6.73-3.56,13.79-7.27,20.65-6.13,11.35-9.37,18.64-2.72,24.04,1.85,1.5,4.56,2.21,7.21,2.76,8.24,1.69,16.9,1.38,23.75-.85,3.77-1.23,6.18-3.07,7.37-5.62,1.55-3.34,1.31-7.42-.62-10.16-1.46-2.07-3.59-3.67-5.49-4.97-.71-.48-4.44-4.22-4.63-6.58-.08-.98.33-1.72,1.15-3.2.97-1.74,2.43-4.37,2.59-6.65.06-.86-.47-1.68-1.31-1.99l-20.04-7.42Z"/>
        </g>
        <g>
          <path class="cls-4" d="M136.58,258h0c-3,2.21-3.78,6.35-1.83,9.52,4.46,7.26,7.76,19.68,8.58,20.4,1.37,1.21,5.36.44,7.01.45,3.62.02,7.49.17,10.83,1.73,2.48,1.16,4.32,3.16,5.02,5.83.83,3.16.58,6.98-.8,9.95-1.04,2.23-3.04,3.76-5.05,5.09-4.54,3.01-9.78,5.08-15.01,6.51-7.74,2.11-21.37,4.16-25.38-5.21-6.11-14.3,5.34-19.17-12.76-34.55-12.13-10.3-25.62-12.31-37.97-18.12-2.48-1.16-5.19-1.72-7.93-1.72h-25.96c-19.24,0-34.37-16.42-32.8-35.6l10.01-122.71c1.65-20.24,4.78-40.34,9.34-60.13l6.92-30.02c.95-4.11,4.6-7.01,8.82-7.01h28.94c4.06,0,7.17,3.62,6.56,7.65l-6.33,41.11c-1.46,9.47,5.87,18.01,15.45,18.01h35.45c9.71,0,17.25-8.46,16.12-18.11l-4.69-40.44c-.5-4.37,2.92-8.22,7.32-8.22h28.47c4.17,0,7.78,2.89,8.7,6.95l5.97,26.44c5.02,22.23,8.64,44.75,10.85,67.43,0,0,11.5,118.3,11.51,118.35.95,9.74-2.54,19.55-9.44,26.51-13.77,13.89-37.74,9.79-55.54,9.79-.14,0-.27.04-.39.13Z"/>
          <path class="cls-2" d="M133.39,321.72c-7.85,0-13.27-2.88-15.67-8.5-2.5-5.86-2.31-10.29-2.14-14.2.26-5.93.46-10.61-9.97-19.47-7.86-6.68-16.54-9.8-24.94-12.82-4.12-1.48-8.39-3.02-12.5-4.95-2.08-.98-4.47-1.5-6.9-1.5h-25.96c-9.84,0-19.31-4.15-25.97-11.38C2.68,241.67-.69,231.89.12,222.08l10.01-122.71c1.65-20.27,4.81-40.61,9.4-60.47l6.92-30.02c1.21-5.23,5.81-8.88,11.17-8.88h28.94c2.64,0,5.14,1.15,6.86,3.15,1.72,2.01,2.48,4.66,2.08,7.27l-6.33,41.11c-.59,3.82.52,7.69,3.03,10.62,2.52,2.93,6.17,4.61,10.03,4.61h35.45c3.94,0,7.71-1.69,10.33-4.63,2.62-2.94,3.86-6.87,3.4-10.79l-4.7-40.44c-.32-2.77.56-5.55,2.42-7.63,1.85-2.08,4.51-3.27,7.3-3.27h28.48c5.32,0,9.87,3.63,11.05,8.83l5.97,26.44c5.02,22.23,8.68,45.02,10.9,67.73,0,0,11.5,118.31,11.51,118.35,1.01,10.39-2.78,21.02-10.12,28.44-12.04,12.14-30.74,11.41-47.23,10.77-3.3-.13-6.43-.25-9.4-.27-1.65,1.53-2,4-.79,5.97,3.03,4.93,5.46,11.89,7.07,16.5.44,1.25.92,2.64,1.21,3.36.83.16,2.63.01,3.46-.06.69-.06,1.27-.1,1.79-.1,3.92.02,8.06.19,11.84,1.96,3.22,1.51,5.47,4.14,6.33,7.4.99,3.76.63,8.2-.95,11.58-1.29,2.77-3.6,4.56-5.9,6.08-4.34,2.87-9.62,5.17-15.71,6.83-4.68,1.28-8.89,1.91-12.56,1.91ZM37.62,4.82c-3.11,0-5.77,2.12-6.47,5.15l-6.92,30.02c-4.53,19.63-7.66,39.74-9.29,59.78l-10.01,122.71c-.7,8.6,2.13,16.82,7.97,23.16,5.84,6.34,13.81,9.83,22.43,9.83h25.96c3.14,0,6.24.68,8.96,1.95,3.9,1.84,7.87,3.26,12.07,4.78,8.8,3.17,17.9,6.44,26.43,13.69,12.22,10.38,11.95,16.68,11.66,23.35-.16,3.72-.31,7.24,1.76,12.09,3.44,8.06,16.9,5.37,22.52,3.83,5.59-1.52,10.41-3.61,14.32-6.19,1.71-1.13,3.41-2.41,4.19-4.1,1.11-2.37,1.36-5.64.65-8.32-.63-2.38-2.36-3.63-3.71-4.26-2.89-1.35-6.44-1.48-9.82-1.5-.34-.02-.82.04-1.37.09-2.41.2-5.42.45-7.22-1.14-.73-.65-1.05-1.49-2.4-5.37-1.54-4.41-3.87-11.08-6.63-15.57-2.63-4.28-1.58-9.75,2.45-12.73h0c.53-.39,1.16-.6,1.81-.6,3.25,0,6.63.13,10.21.27,15.5.6,33.07,1.29,43.61-9.34,6.35-6.41,9.62-15.6,8.75-24.58-.02-.22-11.51-118.35-11.51-118.35-2.19-22.51-5.83-45.1-10.8-67.14l-5.97-26.44c-.68-2.98-3.29-5.07-6.35-5.07h-28.48c-1.43,0-2.74.59-3.69,1.66-.96,1.07-1.39,2.45-1.23,3.87l4.7,40.44c.62,5.28-1.06,10.58-4.59,14.55-3.53,3.97-8.61,6.25-13.93,6.25h-35.45c-5.27,0-10.26-2.29-13.7-6.3-3.43-4-4.94-9.28-4.14-14.49l6.33-41.11c.19-1.22-.17-2.46-.97-3.4-.8-.93-1.97-1.47-3.2-1.47h-28.94Z"/>
        </g>
        <rect class="cls-3" x="25.47" y="132.45" width="18.96" height="108.7" rx="9.48" ry="9.48" transform="translate(15.69 -2.26) rotate(4.78)"/>
        <rect class="cls-3" x="32.59" y="76.75" width="18.96" height="41.97" rx="9.48" ry="9.48" transform="translate(8.29 -3.17) rotate(4.78)"/>
        <path d="M150.39,206.45c-12.84,4.4-27.18.47-35.9-9.98-2.43-2.92-4.3-6.31-5.57-9.89-.77-2.18-4.27-1.24-3.49.96,4.99,14.12,18.27,24,33.31,24.37,4.27.1,8.56-.59,12.6-1.97,2.19-.75,1.25-4.25-.96-3.49h0Z"/>
        <path d="M101.83,187.91h12.49c.98,0,1.81-.83,1.81-1.81s-.83-1.81-1.81-1.81h-12.49c-.98,0-1.81.83-1.81,1.81s.83,1.81,1.81,1.81h0Z"/>
        <path d="M91.84,90.77c3.56-.77,7.12-1.55,10.68-2.32.51-.11,1.01-.22,1.52-.33.95-.21,1.51-1.32,1.26-2.23-.27-.99-1.27-1.47-2.23-1.26-3.56.77-7.12,1.55-10.68,2.32-.51.11-1.01.22-1.52.33-.95.21-1.51,1.32-1.26,2.23.27.99,1.27,1.47,2.23,1.26h0Z"/>
        <path d="M169.02,85.2c3.56.79,7.11,1.57,10.67,2.36.51.11,1.01.22,1.52.34.95.21,1.96-.29,2.23-1.26.25-.91-.31-2.01-1.26-2.23-3.56-.79-7.11-1.57-10.67-2.36-.51-.11-1.01-.22-1.52-.34-.95-.21-1.96.29-2.23,1.26-.25.91.31,2.01,1.26,2.23h0Z"/>
        <path class="cls-1" d="M123.84,115.43v45.28c0,8.57-6.96,15.53-15.52,15.53s-15.53-6.97-15.53-15.53v-45.28c0-8.57,6.96-15.53,15.53-15.53s15.52,6.96,15.52,15.53Z"/>
        <path class="cls-2" d="M108.32,97c-10.16,0-18.43,8.27-18.43,18.43v45.28c0,10.16,8.27,18.43,18.43,18.43s18.42-8.27,18.42-18.43v-45.28c0-10.16-8.26-18.43-18.42-18.43ZM123.84,160.71c0,8.57-6.96,15.53-15.52,15.53s-15.53-6.97-15.53-15.53v-45.28c0-8.57,6.96-15.53,15.53-15.53s15.52,6.96,15.52,15.53v45.28Z"/>
        <path class="cls-2" d="M114.57,171.77h0c-5.65,0-10.27-4.62-10.27-10.27v-36.13s0-12.79,0-12.79c0-5.65,4.62-10.27,10.27-10.27h0c5.65,0,10.27,4.62,10.27,10.27v48.92c0,5.65-4.62,10.27-10.27,10.27Z"/>
        <path class="cls-4" d="M124.76,184.14s-.02.08-.02.12l-37.56-7.68c1.66-7.92,7.97-14.07,16.01-15.35,8-1.28,15.99,3,19.75,10.08,2.08,3.92,2.72,8.49,1.81,12.83Z"/>
        <path class="cls-2" d="M128.25,185.1c-.46,2.25-3.85,1.34-3.51-.84,0-.04,0-.08.02-.12.91-4.34.27-8.91-1.81-12.83-3.75-7.08-11.75-11.36-19.75-10.08-8.05,1.28-14.35,7.43-16.01,15.35,0,.04-.02.08-.03.12-.46,2.29-3.96,1.31-3.49-.96,1.07-5.22,3.94-9.98,8.13-13.28,7.5-5.91,18.13-6.73,26.26-1.58,8.11,5.13,12.14,14.88,10.2,24.23Z"/>
        <rect class="cls-1" x="151.02" y="94.51" width="32.05" height="74.81" rx="16.03" ry="16.03"/>
        <path class="cls-2" d="M167.05,170.69c-9.59,0-17.39-7.8-17.39-17.39v-42.76c0-9.59,7.8-17.39,17.39-17.39s17.39,7.8,17.39,17.39v42.76c0,9.59-7.8,17.39-17.39,17.39ZM167.05,95.88c-8.08,0-14.66,6.58-14.66,14.66v42.76c0,8.08,6.58,14.66,14.66,14.66s14.66-6.58,14.66-14.66v-42.76c0-8.08-6.58-14.66-14.66-14.66Z"/>
        <path class="cls-2" d="M172.95,163.73h0c-5.33,0-9.7-4.36-9.7-9.7v-34.11s0-12.08,0-12.08c0-5.33,4.36-9.7,9.7-9.7h0c5.33,0,9.7,4.36,9.7,9.7v46.19c0,5.33-4.36,9.7-9.7,9.7Z"/>
        <path class="cls-4" d="M146.35,166.58c3.42-8.96,13.06-14.41,22.7-12.32,10.62,2.3,17.46,12.93,15.17,23.54l-37.87-11.22Z"/>
        <path class="cls-2" d="M148,167.04c2.63-6.71,9.3-11.35,16.49-11.51s13.71,4.07,16.77,10.51c1.66,3.5,2.09,7.53,1.31,11.31-.44,2.15,2.85,3.06,3.29.91,1.72-8.3-1.48-16.83-8.25-21.93s-16.51-5.54-23.84-1.1c-4.18,2.53-7.3,6.37-9.07,10.9-.8,2.05,2.5,2.94,3.29.91h0Z"/>
        <circle class="cls-1" cx="104.37" cy="120.4" r="6.03"/>
        <circle class="cls-1" cx="163.21" cy="113.16" r="4.58"/>
        <path class="cls-3" d="M94.4,175.51c.26-.57.55-1.13.88-1.66.17-.27.35-.54.54-.8s-.03.03.09-.12c.09-.11.18-.22.28-.33.39-.45.82-.88,1.27-1.27.11-.09.22-.18.33-.27.25-.21-.05.03.1-.08.25-.18.51-.36.77-.53.48-.3.97-.57,1.48-.81.02-.01.52-.22.19-.08.13-.05.26-.1.39-.15.26-.1.53-.18.8-.26.57-.17,1.15-.29,1.73-.38-.39.06.16-.01.19-.02.11-.01.23-.02.34-.03.34-.02.68-.03,1.02-.03.95,0,1.85-.84,1.81-1.81s-.79-1.8-1.81-1.81c-5.74-.04-11.19,3.34-13.54,8.61-.4.89-.26,1.94.65,2.47.77.45,2.07.25,2.47-.65h0Z"/>
        <path class="cls-3" d="M156.06,167.37c.23-.51.48-1,.78-1.47.15-.24.31-.48.48-.71s-.02.02.08-.1c.08-.1.16-.2.25-.29.35-.4.72-.78,1.13-1.12.09-.08.19-.16.29-.24.22-.18-.04.03.09-.07.22-.16.45-.32.68-.46.42-.27.86-.5,1.31-.71.02,0,.46-.19.17-.07.12-.05.23-.09.35-.13.23-.08.47-.16.71-.23.5-.15,1.01-.26,1.53-.33-.34.05.14-.01.17-.01.1,0,.2-.02.3-.02.3-.02.6-.03.9-.02.84,0,1.64-.74,1.6-1.6s-.7-1.59-1.6-1.6c-5.07-.03-9.88,2.95-11.96,7.6-.35.79-.23,1.72.57,2.19.68.4,1.83.22,2.19-.57h0Z"/>
      </g>
    </g>
  </g>
</svg>